<svg width="336" height="330" viewBox="0 0 336 330" fill="none" xmlns="http://www.w3.org/2000/svg">
<path d="M284.5 192.344C312.943 192.344 336 169.881 336 142.172C336 114.463 312.943 92 284.5 92C256.057 92 233 114.463 233 142.172C233 169.881 256.057 192.344 284.5 192.344Z" fill="#B1B4C5"/>
<path d="M284.5 192.344C312.943 192.344 336 169.881 336 142.172C336 114.463 312.943 92 284.5 92C256.057 92 233 114.463 233 142.172C233 169.881 256.057 192.344 284.5 192.344Z" fill="url(#paint0_linear)"/>
<path d="M284.5 182.517C306.335 182.517 324.035 164.917 324.035 143.207C324.035 121.497 306.335 103.897 284.5 103.897C262.666 103.897 244.965 121.497 244.965 143.207C244.965 164.917 262.666 182.517 284.5 182.517Z" fill="#E1E4ED"/>
<path d="M299.861 133.03C299.583 132.921 299.285 132.873 298.987 132.89C298.582 132.918 298.255 133.082 298.062 133.35C296.922 134.945 295.988 137.957 295.235 140.378C294.89 141.497 294.425 142.994 294.09 143.705C293.74 141.714 294.135 134.418 294.289 131.609L294.291 131.563C294.398 129.611 294.412 129.269 294.389 129.119C294.219 128.049 293.79 127.345 293.111 127.031C292.425 126.711 291.534 126.853 290.574 127.43C290.093 127.72 289.96 128.718 289.546 133.24L289.545 133.26C289.317 135.745 288.794 141.466 288.15 142.419C287.423 141.086 286.422 133.512 285.99 130.234C285.689 127.938 285.513 126.62 285.394 126.222C285.145 125.388 284.094 124.678 283.054 124.639C282.187 124.596 281.476 125.036 281.137 125.801C280.502 126.506 280.727 128.846 281.427 134.387C281.762 137.024 282.451 142.471 282.017 143.082C281.152 142.988 279.667 139.576 277.603 132.938C277.023 131.078 276.844 130.52 276.666 130.275C276.316 129.422 275.124 128.765 274.056 128.839C273.964 128.845 273.876 128.857 273.788 128.874C273.228 128.984 271.952 129.499 272.224 131.872C272.978 135.162 273.797 137.577 274.591 139.922L274.607 139.968C275.083 141.372 275.532 142.699 275.95 144.172C276.934 147.648 276.551 149.805 276.546 149.83C276.514 150.052 276.446 150.187 276.342 150.235C276.298 150.254 276.251 150.264 276.203 150.266C275.892 150.288 275.423 150.081 275.183 149.947C274.632 148.896 271.89 143.885 269.405 143.19L269.315 143.164L269.225 143.172C268.314 143.258 267.644 143.602 267.234 144.195C266.585 145.132 266.854 146.325 266.919 146.564L266.955 146.65C266.975 146.686 268.968 150.314 269.277 152.002C269.543 153.449 270.919 155.017 272.025 156.277L272.071 156.328C272.431 156.741 272.743 157.097 272.988 157.427C276.198 160.77 281.275 163.583 281.316 163.606C281.949 164.072 282.301 164.523 282.339 164.912C282.356 165.058 282.315 165.205 282.225 165.322L282.115 165.438L282.817 166.119L296.209 165.179L296.78 162.566C298.546 155.186 298.177 148.894 298.171 148.852C298.178 148.62 298.673 146.382 299.071 144.572L299.082 144.526C299.876 140.923 300.862 136.439 301.052 134.733C301.134 134.003 300.666 133.334 299.862 133.03H299.861Z" fill="#8A90AC"/>
<path d="M51.5 197C79.9427 197 103 173.495 103 144.5C103 115.505 79.9427 92 51.5 92C23.0573 92 0 115.505 0 144.5C0 173.495 23.0573 197 51.5 197Z" fill="#B1B4C5"/>
<path d="M51.5 192.344C79.9427 192.344 103 169.881 103 142.172C103 114.463 79.9427 92 51.5 92C23.0573 92 0 114.463 0 142.172C0 169.881 23.0573 192.344 51.5 192.344Z" fill="url(#paint1_linear)"/>
<path d="M51.5001 182.517C73.3347 182.517 91.0351 164.917 91.0351 143.207C91.0351 121.497 73.3347 103.897 51.5001 103.897C29.6655 103.897 11.9651 121.497 11.9651 143.207C11.9651 164.917 29.6655 182.517 51.5001 182.517Z" fill="#E1E4ED"/>
<path d="M68.9331 146.218L68.3201 145.608C66.8551 144.152 64.4601 143.834 62.6731 144.856L58.8531 147.026L59.6501 129.644C59.6475 128.941 59.366 128.268 58.8675 127.772C58.369 127.276 57.6941 126.999 56.9911 127C56.6741 127 56.3701 127.056 56.0871 127.158L56.1821 126.225C56.1821 124.751 54.9711 123.552 53.4841 123.552C52.1091 123.552 50.9561 124.577 50.8101 125.892L48.3601 140.613C48.3281 140.813 47.9791 140.793 47.9421 140.667L45.0471 128.865C44.8891 128.328 44.5615 127.856 44.1133 127.519C43.6651 127.183 43.1203 127.001 42.5601 127C41.7661 127 41.0271 127.356 40.5331 127.975C40.2901 128.278 40.1197 128.632 40.0348 129.011C39.9498 129.39 39.9527 129.783 40.0431 130.161L40.6061 132.537C40.2849 132.512 39.962 132.553 39.6571 132.657C39.1048 132.838 38.6351 133.21 38.3323 133.707C38.0296 134.203 37.9136 134.791 38.0051 135.365L39.7081 145.104C39.7081 148.946 40.3861 151.789 40.9541 153.496C41.2781 154.47 41.4421 155.495 41.4421 156.541C41.4421 157.452 41.3151 158.359 41.0621 159.234L39.7421 163.833C39.7057 163.962 39.6997 164.097 39.7245 164.228C39.7493 164.359 39.8042 164.483 39.885 164.59C39.9657 164.696 40.0701 164.782 40.1898 164.842C40.3096 164.901 40.4415 164.931 40.5751 164.931H56.1821C56.3189 164.931 56.4537 164.899 56.5755 164.836C56.6974 164.774 56.8027 164.684 56.883 164.573C56.9633 164.463 57.0162 164.334 57.0375 164.199C57.0587 164.064 57.0476 163.926 57.0051 163.796C56.9961 163.774 56.2711 161.548 56.9571 158.52C57.8271 157.817 60.8741 155.354 61.9681 154.36C63.7771 152.718 68.7321 147.644 68.9421 147.428C69.1008 147.266 69.1889 147.048 69.1872 146.821C69.1855 146.594 69.0942 146.378 68.9331 146.218V146.218Z" fill="#8A90AC"/>
<path d="M168.5 105C196.943 105 220 81.4949 220 52.5C220 23.5051 196.943 0 168.5 0C140.057 0 117 23.5051 117 52.5C117 81.4949 140.057 105 168.5 105Z" fill="#B1B4C5"/>
<path d="M168.5 100.344C196.943 100.344 220 77.8812 220 50.172C220 22.4628 196.943 0 168.5 0C140.057 0 117 22.4628 117 50.172C117 77.8812 140.057 100.344 168.5 100.344Z" fill="url(#paint2_linear)"/>
<path d="M168.5 90.517C190.335 90.517 208.035 72.9173 208.035 51.207C208.035 29.4967 190.335 11.897 168.5 11.897C146.666 11.897 128.965 29.4967 128.965 51.207C128.965 72.9173 146.666 90.517 168.5 90.517Z" fill="#E1E4ED"/>
<path d="M158.179 50.871L162.45 44.901C160.675 44.606 157.415 44.541 154.745 47.196C150.537 51.38 148.832 60.421 148.477 62.609L159.173 73.245C161.099 73.081 169.625 71.949 177.84 63.781C177.927 63.604 179.928 62.134 178.292 60.507C177.512 59.731 176.219 59.745 175.421 60.539C175.328 60.6349 175.217 60.7114 175.094 60.764C174.971 60.8166 174.84 60.8444 174.706 60.8457C174.572 60.847 174.44 60.8218 174.316 60.7716C174.192 60.7214 174.08 60.6471 173.985 60.553C173.891 60.4593 173.816 60.3475 173.765 60.2244C173.715 60.1013 173.689 59.9692 173.69 59.8361C173.692 59.703 173.72 59.5714 173.773 59.4493C173.826 59.3272 173.903 59.2169 173.999 59.125L176.902 56.239C178.378 54.772 176.987 52.298 174.928 52.892L172.551 54.915C172.347 55.091 172.082 55.1793 171.813 55.1607C171.544 55.1422 171.294 55.0183 171.116 54.816C170.747 54.392 170.826 53.749 171.246 53.387C179.547 46.145 178.336 47.017 183.676 42.04C185.672 40.388 183.161 37.465 181.195 39.139L168.275 50.691C168.09 50.848 167.854 50.933 167.611 50.9304C167.369 50.9278 167.135 50.8379 166.953 50.677C166.526 50.31 166.516 49.782 166.795 49.365L175.807 35.434C177.125 33.66 174.532 31.69 173.144 33.478L159.819 52.008C159.743 52.1171 159.646 52.21 159.534 52.2815C159.421 52.3529 159.296 52.4015 159.165 52.4243C159.034 52.4472 158.9 52.4439 158.77 52.4147C158.64 52.3855 158.518 52.3309 158.409 52.254C158.301 52.1797 158.21 52.0845 158.14 51.9741C158.07 51.8636 158.023 51.7403 158.001 51.6112C157.98 51.4822 157.984 51.3502 158.015 51.2231C158.046 51.0959 158.101 50.9762 158.179 50.871V50.871Z" fill="#8A90AC"/>
<path d="M238.5 330C266.943 330 290 306.495 290 277.5C290 248.505 266.943 225 238.5 225C210.057 225 187 248.505 187 277.5C187 306.495 210.057 330 238.5 330Z" fill="#B1B4C5"/>
<path d="M238.5 325.344C266.943 325.344 290 302.881 290 275.172C290 247.463 266.943 225 238.5 225C210.057 225 187 247.463 187 275.172C187 302.881 210.057 325.344 238.5 325.344Z" fill="url(#paint3_linear)"/>
<path d="M238.5 315.517C260.335 315.517 278.035 297.917 278.035 276.207C278.035 254.497 260.335 236.897 238.5 236.897C216.666 236.897 198.965 254.497 198.965 276.207C198.965 297.917 216.666 315.517 238.5 315.517Z" fill="#E1E4ED"/>
<path d="M253.815 270.562C253.36 264.818 246.901 265.405 246.901 265.405C244.175 260.605 239.917 264.082 239.917 264.082C236.645 259.378 232.543 263.737 232.543 263.737C225.471 262.975 225.745 268.75 225.745 268.75C225.578 270.586 226.741 276.265 226.741 276.265C225.692 272.992 223.416 275.709 223.416 275.709C220.619 280.021 222.725 282.382 222.725 282.382C226.51 286.813 234.579 292.132 234.579 292.132C237.499 293.803 236.264 295.293 236.264 295.293L253.934 292.377L254.341 289.031C257.027 280.917 253.816 270.561 253.816 270.561L253.815 270.562Z" fill="#8A90AC"/>
<path d="M97.5 330C125.943 330 149 306.495 149 277.5C149 248.505 125.943 225 97.5 225C69.0573 225 46 248.505 46 277.5C46 306.495 69.0573 330 97.5 330Z" fill="#B1B4C5"/>
<path d="M97.5 325.344C125.943 325.344 149 302.881 149 275.172C149 247.463 125.943 225 97.5 225C69.0573 225 46 247.463 46 275.172C46 302.881 69.0573 325.344 97.5 325.344Z" fill="url(#paint4_linear)"/>
<path d="M97.5001 315.517C119.335 315.517 137.035 297.917 137.035 276.207C137.035 254.497 119.335 236.897 97.5001 236.897C75.6655 236.897 57.9651 254.497 57.9651 276.207C57.9651 297.917 75.6655 315.517 97.5001 315.517Z" fill="#E1E4ED"/>
<path d="M110.275 258.413C112.569 256.994 114.767 256.687 116.465 257.548C120.271 259.478 119.72 266.661 118.163 269.774C117.283 271.531 115.725 272.814 113.526 273.595C112.674 276.29 111.478 278.606 109.951 280.522C110.963 281.367 112.24 281.828 113.558 281.826H113.622L115.768 279.71C116.029 279.454 116.38 279.311 116.746 279.311C117.112 279.311 117.463 279.454 117.724 279.71C117.853 279.836 117.955 279.986 118.024 280.151C118.094 280.317 118.13 280.495 118.13 280.674C118.13 280.854 118.094 281.032 118.024 281.198C117.955 281.363 117.853 281.513 117.724 281.639L117.534 281.826H117.965C118.729 281.826 119.348 282.436 119.348 283.19C119.348 283.943 118.728 284.553 117.965 284.553H117.533L117.723 284.741C117.851 284.867 117.953 285.017 118.023 285.182C118.092 285.348 118.128 285.525 118.128 285.705C118.128 285.884 118.092 286.062 118.023 286.228C117.953 286.393 117.851 286.543 117.723 286.669C117.453 286.936 117.099 287.069 116.745 287.069C116.391 287.069 116.037 286.936 115.767 286.669L113.621 284.553H113.557C111.544 284.556 109.597 283.837 108.07 282.526C107.776 282.794 107.471 283.051 107.157 283.296C104.507 285.366 101.265 286.571 97.4772 286.9C97.9552 288.335 98.0482 289.89 97.7212 291.407L97.7082 291.47L99.3592 294.068C99.5589 294.382 99.6271 294.762 99.5488 295.126C99.4706 295.489 99.2523 295.808 98.9412 296.012C98.7873 296.111 98.6153 296.179 98.4351 296.212C98.2548 296.244 98.0699 296.241 97.8911 296.201C97.7122 296.162 97.5429 296.088 97.3929 295.983C97.2429 295.877 97.1152 295.744 97.0172 295.589L96.8712 295.359L96.7782 295.789C96.7401 295.968 96.667 296.138 96.5631 296.289C96.4592 296.44 96.3266 296.57 96.1729 296.669C96.0191 296.769 95.8471 296.838 95.6669 296.871C95.4866 296.905 95.3015 296.902 95.1222 296.864C94.7595 296.782 94.444 296.56 94.2444 296.247C94.0449 295.933 93.9776 295.553 94.0572 295.19L94.1502 294.76L93.9222 294.908C93.2752 295.328 92.4142 295.139 91.9982 294.485C91.7986 294.171 91.7306 293.791 91.809 293.427C91.8874 293.063 92.1059 292.745 92.4172 292.541L94.9872 290.871L95.0012 290.808C95.2807 289.512 95.1015 288.159 94.4942 286.981C93.3543 286.948 92.217 286.853 91.0872 286.698C87.7592 286.248 85.8722 287.714 85.3732 288.174C81.4532 291.787 80.6942 298.172 80.6872 298.236C80.6489 298.578 80.486 298.895 80.2294 299.125C79.9729 299.355 79.6407 299.482 79.2962 299.483C79.0676 299.483 78.8426 299.427 78.6408 299.319C78.4389 299.212 78.2664 299.057 78.1382 298.868C78.0752 298.775 76.6002 296.573 75.9532 293.465C75.0742 289.245 76.1222 285.372 78.9832 282.268C80.6809 280.433 82.8182 279.062 85.1932 278.283L84.9012 278.359C84.1504 278.01 83.3323 277.829 82.5042 277.829H82.4402L80.2862 279.945C80.0152 280.212 79.6592 280.345 79.3042 280.345C78.9492 280.345 78.5942 280.212 78.3222 279.945C78.1936 279.819 78.0915 279.67 78.0217 279.504C77.9519 279.338 77.916 279.161 77.916 278.981C77.916 278.801 77.9519 278.623 78.0217 278.458C78.0915 278.292 78.1936 278.142 78.3222 278.017L78.5132 277.829H78.0802C77.3132 277.829 76.6912 277.219 76.6912 276.466C76.6912 275.712 77.3132 275.102 78.0802 275.102H78.5132L78.3232 274.914C78.1946 274.788 78.0925 274.639 78.0227 274.473C77.9529 274.307 77.917 274.13 77.917 273.95C77.917 273.77 77.9529 273.592 78.0227 273.427C78.0925 273.261 78.1946 273.111 78.3232 272.986C78.5858 272.73 78.938 272.587 79.3047 272.587C79.6714 272.587 80.0236 272.73 80.2862 272.986L82.4402 275.102H82.5042C84.8492 275.102 87.0722 276.062 88.6562 277.745L88.5022 277.587C89.7678 277.461 91.0438 277.483 92.3042 277.654C95.8172 278.129 98.6902 277.641 100.908 276.198C99.6587 274.652 98.9794 272.723 98.9842 270.735V270.67L96.8602 268.48C96.6031 268.212 96.4595 267.854 96.4595 267.482C96.4595 267.111 96.6031 266.753 96.8602 266.485C96.9853 266.354 97.1356 266.25 97.3019 266.179C97.4683 266.108 97.6473 266.072 97.8282 266.072C98.0091 266.072 98.1881 266.108 98.3545 266.179C98.5209 266.25 98.6711 266.354 98.7962 266.485L98.9832 266.679V266.239C98.9832 265.459 99.5962 264.828 100.353 264.828C101.108 264.828 101.721 265.459 101.721 266.238V266.679L101.909 266.485C102.034 266.354 102.184 266.251 102.351 266.18C102.517 266.109 102.696 266.072 102.877 266.072C103.057 266.072 103.236 266.109 103.403 266.18C103.569 266.251 103.719 266.354 103.844 266.485C104.659 267.325 104.071 268.247 103.844 268.481L101.721 270.67V270.735C101.721 272.067 102.171 273.341 102.98 274.353C103.982 273.155 104.77 271.65 105.34 269.839C104.923 268.686 104.275 265.957 105.929 262.861C106.795 261.239 108.46 259.535 110.274 258.413H110.275Z" fill="#8A90AC"/>
<path d="M104.26 68.0706L81.2587 87.3709C80.6947 87.8442 80.6212 88.685 81.0944 89.2489L81.095 89.2497C81.5682 89.8136 82.409 89.8872 82.973 89.414L105.974 70.1136C106.538 69.6404 106.612 68.7996 106.139 68.2357L106.138 68.2349C105.665 67.6709 104.824 67.5974 104.26 68.0706Z" fill="#B1B4C5"/>
<path fill-rule="evenodd" clip-rule="evenodd" d="M97.8333 66.5132L105.877 67.3603C106.55 67.4312 107.043 68.026 106.991 68.702C106.978 68.86 106.934 69.0138 106.861 69.1544C106.788 69.295 106.688 69.4196 106.566 69.5208C106.444 69.622 106.303 69.6978 106.151 69.7436C105.999 69.7895 105.84 69.8046 105.683 69.7879L97.6394 68.9408C97.3153 68.9067 97.0175 68.7473 96.8093 68.4966C96.6012 68.2459 96.4993 67.9238 96.5252 67.599C96.5379 67.4411 96.582 67.2873 96.655 67.1467C96.728 67.0061 96.8284 66.8815 96.9503 66.7803C97.0722 66.6791 97.2131 66.6033 97.3648 66.5575C97.5165 66.5116 97.6758 66.4965 97.8333 66.5132V66.5132Z" fill="#B1B4C5"/>
<path fill-rule="evenodd" clip-rule="evenodd" d="M103.967 76.4818L104.529 68.4129C104.54 68.2549 104.582 68.1006 104.654 67.9593C104.726 67.8179 104.825 67.6924 104.946 67.59C105.067 67.4875 105.207 67.4104 105.358 67.363C105.509 67.3156 105.668 67.299 105.826 67.314C106.5 67.3787 107.002 67.9684 106.954 68.6442L106.392 76.7132C106.381 76.8712 106.338 77.0254 106.267 77.1668C106.195 77.3081 106.096 77.4337 105.975 77.5361C105.854 77.6385 105.714 77.7157 105.563 77.7631C105.412 77.8105 105.253 77.8271 105.095 77.812C104.771 77.7812 104.471 77.6249 104.26 77.3764C104.05 77.1279 103.944 76.8069 103.967 76.4818Z" fill="#B1B4C5"/>
<path d="M252.259 87.9299L229.258 68.6295C228.694 68.1563 228.621 67.3155 229.094 66.7516L229.095 66.7508C229.568 66.1868 230.409 66.1133 230.973 66.5865L253.974 85.8868C254.538 86.3601 254.611 87.2009 254.138 87.7648L254.137 87.7656C253.664 88.3295 252.823 88.4031 252.259 87.9299Z" fill="#B1B4C5"/>
<path fill-rule="evenodd" clip-rule="evenodd" d="M245.833 89.4873L253.876 88.6402C254.549 88.5693 255.043 87.9745 254.99 87.2984C254.978 87.1405 254.933 86.9867 254.86 86.8461C254.787 86.7055 254.687 86.5809 254.565 86.4797C254.443 86.3785 254.302 86.3027 254.151 86.2569C253.999 86.211 253.84 86.1959 253.682 86.2126L245.639 87.0597C245.315 87.0938 245.017 87.2532 244.809 87.5039C244.601 87.7546 244.499 88.0767 244.525 88.4014C244.537 88.5594 244.581 88.7132 244.654 88.8538C244.728 88.9944 244.828 89.119 244.95 89.2202C245.072 89.3214 245.213 89.3972 245.364 89.443C245.516 89.4889 245.675 89.5039 245.833 89.4873V89.4873Z" fill="#B1B4C5"/>
<path fill-rule="evenodd" clip-rule="evenodd" d="M251.966 79.5187L252.528 87.5876C252.539 87.7456 252.582 87.8999 252.654 88.0412C252.725 88.1825 252.824 88.3081 252.945 88.4105C253.066 88.5129 253.206 88.5901 253.357 88.6375C253.509 88.6849 253.668 88.7015 253.825 88.6864C254.5 88.6218 255.001 88.0321 254.953 87.3562L254.392 79.2873C254.381 79.1293 254.338 78.975 254.266 78.8337C254.195 78.6924 254.096 78.5668 253.975 78.4644C253.854 78.362 253.714 78.2848 253.562 78.2374C253.411 78.19 253.252 78.1734 253.094 78.1885C252.77 78.2193 252.471 78.3756 252.26 78.6241C252.049 78.8726 251.944 79.1936 251.966 79.5187Z" fill="#B1B4C5"/>
<path d="M281.224 229.871L299.294 205.891C299.738 205.303 299.62 204.467 299.032 204.024L299.031 204.023C298.443 203.58 297.608 203.698 297.164 204.286L279.094 228.266C278.651 228.853 278.769 229.689 279.357 230.132L279.358 230.133C279.946 230.576 280.781 230.459 281.224 229.871Z" fill="#B1B4C5"/>
<path fill-rule="evenodd" clip-rule="evenodd" d="M287.837 229.943L279.809 230.927C279.137 231.009 278.522 230.54 278.421 229.87C278.398 229.713 278.407 229.553 278.446 229.4C278.486 229.246 278.555 229.102 278.651 228.976C278.747 228.85 278.868 228.745 279.005 228.666C279.143 228.587 279.294 228.537 279.452 228.517L287.479 227.534C287.803 227.494 288.129 227.582 288.388 227.78C288.647 227.977 288.819 228.268 288.867 228.59C288.89 228.747 288.882 228.907 288.842 229.06C288.803 229.214 288.733 229.358 288.637 229.484C288.541 229.61 288.42 229.715 288.283 229.794C288.146 229.873 287.994 229.923 287.837 229.943V229.943Z" fill="#B1B4C5"/>
<path fill-rule="evenodd" clip-rule="evenodd" d="M279.618 221.609L280.885 229.598C280.91 229.754 280.903 229.914 280.865 230.068C280.827 230.222 280.759 230.366 280.664 230.493C280.57 230.62 280.45 230.727 280.314 230.807C280.177 230.887 280.026 230.939 279.869 230.96C279.197 231.049 278.576 230.587 278.47 229.918L277.203 221.929C277.178 221.773 277.185 221.613 277.223 221.459C277.261 221.305 277.329 221.161 277.424 221.034C277.519 220.907 277.638 220.8 277.774 220.72C277.911 220.64 278.062 220.588 278.22 220.567C278.542 220.524 278.869 220.609 279.131 220.803C279.392 220.998 279.567 221.287 279.618 221.609Z" fill="#B1B4C5"/>
<path d="M154.641 303.667H184.667C185.403 303.667 186 304.264 186 305V305.001C186 305.737 185.403 306.334 184.667 306.334H154.641C153.905 306.334 153.308 305.737 153.308 305.001V305C153.308 304.264 153.905 303.667 154.641 303.667Z" fill="#B1B4C5"/>
<path fill-rule="evenodd" clip-rule="evenodd" d="M158.563 298.343L152.946 304.162C152.476 304.649 152.48 305.422 152.955 305.906C153.066 306.019 153.199 306.108 153.345 306.169C153.491 306.23 153.648 306.261 153.807 306.26C153.965 306.259 154.122 306.227 154.268 306.164C154.413 306.102 154.545 306.011 154.655 305.897L160.272 300.078C160.498 299.844 160.624 299.53 160.622 299.204C160.621 298.878 160.492 298.566 160.263 298.334C160.152 298.221 160.019 298.132 159.873 298.071C159.727 298.01 159.57 297.979 159.411 297.98C159.253 297.981 159.096 298.013 158.95 298.076C158.805 298.138 158.673 298.229 158.563 298.343V298.343Z" fill="#B1B4C5"/>
<path fill-rule="evenodd" clip-rule="evenodd" d="M160.272 309.922L154.655 304.102C154.545 303.988 154.413 303.897 154.268 303.835C154.122 303.773 153.965 303.74 153.807 303.74C153.648 303.739 153.491 303.77 153.345 303.831C153.199 303.892 153.066 303.981 152.955 304.094C152.48 304.577 152.475 305.351 152.946 305.838L158.563 311.658C158.673 311.772 158.805 311.863 158.951 311.925C159.096 311.987 159.253 312.02 159.411 312.02C159.57 312.021 159.727 311.99 159.873 311.929C160.019 311.868 160.152 311.779 160.263 311.666C160.492 311.434 160.621 311.122 160.622 310.796C160.624 310.47 160.498 310.156 160.272 309.922Z" fill="#B1B4C5"/>
<path d="M40.2244 206.129L58.2945 230.109C58.7375 230.697 58.6201 231.533 58.0321 231.976L58.0313 231.976C57.4433 232.419 56.6076 232.302 56.1645 231.714L38.0944 207.734C37.6513 207.146 37.7688 206.31 38.3568 205.867L38.3576 205.867C38.9455 205.424 39.7813 205.541 40.2244 206.129Z" fill="#B1B4C5"/>
<path fill-rule="evenodd" clip-rule="evenodd" d="M46.8365 206.057L38.8088 205.073C38.1371 204.991 37.5221 205.459 37.4214 206.13C37.3982 206.287 37.4066 206.447 37.4461 206.6C37.4856 206.753 37.5554 206.897 37.6514 207.023C37.7475 207.149 37.8677 207.255 38.0052 207.334C38.1426 207.413 38.2944 207.463 38.4517 207.482L46.4794 208.466C46.8028 208.506 47.1289 208.418 47.3881 208.22C47.6473 208.023 47.819 207.732 47.8668 207.409C47.89 207.253 47.8816 207.093 47.8421 206.94C47.8026 206.786 47.7328 206.642 47.6368 206.516C47.5408 206.39 47.4205 206.285 47.283 206.206C47.1456 206.127 46.9938 206.076 46.8365 206.057V206.057Z" fill="#B1B4C5"/>
<path fill-rule="evenodd" clip-rule="evenodd" d="M38.6177 214.391L39.8854 206.402C39.9102 206.246 39.9034 206.086 39.8654 205.932C39.8275 205.778 39.7591 205.633 39.6644 205.507C39.5696 205.38 39.4504 205.273 39.3137 205.193C39.1771 205.112 39.0258 205.06 38.8687 205.04C38.1971 204.951 37.576 205.413 37.4705 206.082L36.2028 214.071C36.178 214.227 36.1848 214.387 36.2228 214.541C36.2607 214.695 36.3291 214.839 36.4239 214.966C36.5186 215.093 36.6378 215.2 36.7745 215.28C36.9111 215.36 37.0624 215.412 37.2195 215.433C37.5425 215.476 37.8695 215.391 38.1307 215.196C38.3919 215.002 38.5667 214.712 38.6177 214.391Z" fill="#B1B4C5"/>
<path d="M127.641 137.667H209.975C210.711 137.667 211.308 138.264 211.308 139V139.001C211.308 139.737 210.711 140.334 209.975 140.334H127.641C126.905 140.334 126.308 139.737 126.308 139.001V139C126.308 138.264 126.905 137.667 127.641 137.667Z" fill="#B1B4C5"/>
<path fill-rule="evenodd" clip-rule="evenodd" d="M131.563 132.343L125.946 138.162C125.476 138.649 125.48 139.422 125.955 139.906C126.066 140.019 126.199 140.108 126.345 140.169C126.491 140.23 126.648 140.261 126.807 140.26C126.965 140.259 127.122 140.227 127.267 140.164C127.413 140.102 127.545 140.011 127.655 139.897L133.272 134.078C133.498 133.844 133.624 133.53 133.622 133.204C133.62 132.878 133.491 132.566 133.263 132.334C133.152 132.221 133.019 132.132 132.873 132.071C132.726 132.01 132.569 131.979 132.411 131.98C132.252 131.981 132.096 132.013 131.95 132.076C131.804 132.138 131.673 132.229 131.563 132.343V132.343Z" fill="#B1B4C5"/>
<path fill-rule="evenodd" clip-rule="evenodd" d="M133.272 143.922L127.655 138.102C127.545 137.988 127.413 137.897 127.267 137.835C127.122 137.773 126.965 137.74 126.806 137.74C126.648 137.739 126.491 137.77 126.345 137.831C126.198 137.892 126.066 137.981 125.955 138.094C125.48 138.577 125.475 139.351 125.946 139.838L131.563 145.658C131.673 145.772 131.805 145.863 131.95 145.925C132.096 145.987 132.253 146.02 132.411 146.02C132.57 146.021 132.726 145.99 132.873 145.929C133.019 145.868 133.152 145.779 133.263 145.666C133.491 145.434 133.62 145.122 133.622 144.796C133.624 144.47 133.498 144.156 133.272 143.922V143.922Z" fill="#B1B4C5"/>
<path d="M162.316 142.81C162.296 142.818 162.296 142.828 162.316 142.84C162.504 142.932 162.648 143.064 162.748 143.236C162.852 143.408 162.906 143.616 162.91 143.86C162.91 144.22 162.802 144.5 162.586 144.7C162.374 144.9 162.092 145 161.74 145H160.558C160.518 145 160.498 144.98 160.498 144.94V140.86C160.498 140.82 160.518 140.8 160.558 140.8H161.692C162.06 140.8 162.348 140.896 162.556 141.088C162.764 141.276 162.868 141.546 162.868 141.898C162.868 142.122 162.82 142.31 162.724 142.462C162.632 142.614 162.496 142.73 162.316 142.81ZM160.948 141.172C160.932 141.172 160.924 141.18 160.924 141.196V142.642C160.924 142.658 160.932 142.666 160.948 142.666H161.698C161.93 142.666 162.112 142.6 162.244 142.468C162.38 142.336 162.448 142.158 162.448 141.934C162.448 141.698 162.38 141.512 162.244 141.376C162.112 141.24 161.93 141.172 161.698 141.172H160.948ZM161.728 144.622C161.96 144.622 162.144 144.55 162.28 144.406C162.416 144.262 162.484 144.066 162.484 143.818C162.484 143.566 162.414 143.368 162.274 143.224C162.138 143.08 161.952 143.008 161.716 143.008H160.948C160.932 143.008 160.924 143.016 160.924 143.032V144.598C160.924 144.614 160.932 144.622 160.948 144.622H161.728Z" fill="#B1B4C5"/>
<path d="M166.013 141.112C166.013 141.152 165.993 141.172 165.953 141.172H164.153C164.137 141.172 164.129 141.18 164.129 141.196V142.684C164.129 142.7 164.137 142.708 164.153 142.708H165.365C165.405 142.708 165.425 142.728 165.425 142.768V143.02C165.425 143.06 165.405 143.08 165.365 143.08H164.153C164.137 143.08 164.129 143.088 164.129 143.104V144.604C164.129 144.62 164.137 144.628 164.153 144.628H165.953C165.993 144.628 166.013 144.648 166.013 144.688V144.94C166.013 144.98 165.993 145 165.953 145H163.763C163.723 145 163.703 144.98 163.703 144.94V140.86C163.703 140.82 163.723 140.8 163.763 140.8H165.953C165.993 140.8 166.013 140.82 166.013 140.86V141.112Z" fill="#B1B4C5"/>
<path d="M168.907 145C168.871 145 168.849 144.982 168.841 144.946L168.643 144.196C168.639 144.184 168.629 144.178 168.613 144.178H167.179C167.163 144.178 167.153 144.184 167.149 144.196L166.951 144.946C166.943 144.982 166.921 145 166.885 145H166.573C166.553 145 166.537 144.994 166.525 144.982C166.517 144.97 166.515 144.954 166.519 144.934L167.641 140.854C167.649 140.818 167.671 140.8 167.707 140.8H168.091C168.127 140.8 168.149 140.818 168.157 140.854L169.279 144.934L169.285 144.952C169.285 144.984 169.265 145 169.225 145H168.907ZM167.251 143.806C167.247 143.81 167.247 143.816 167.251 143.824C167.259 143.828 167.267 143.83 167.275 143.83H168.517C168.525 143.83 168.531 143.828 168.535 143.824C168.543 143.816 168.545 143.81 168.541 143.806L167.905 141.394C167.901 141.386 167.897 141.382 167.893 141.382C167.889 141.382 167.885 141.386 167.881 141.394L167.251 143.806Z" fill="#B1B4C5"/>
<path d="M171.735 140.8C171.775 140.8 171.795 140.82 171.795 140.86V141.112C171.795 141.152 171.775 141.172 171.735 141.172H170.757C170.741 141.172 170.733 141.18 170.733 141.196V144.94C170.733 144.98 170.713 145 170.673 145H170.367C170.327 145 170.307 144.98 170.307 144.94V141.196C170.307 141.18 170.299 141.172 170.283 141.172H169.341C169.301 141.172 169.281 141.152 169.281 141.112V140.86C169.281 140.82 169.301 140.8 169.341 140.8H171.735Z" fill="#B1B4C5"/>
<path d="M173.535 145.048C173.159 145.048 172.859 144.95 172.635 144.754C172.415 144.554 172.305 144.288 172.305 143.956V143.794C172.305 143.754 172.325 143.734 172.365 143.734H172.659C172.699 143.734 172.719 143.754 172.719 143.794V143.932C172.719 144.156 172.795 144.336 172.947 144.472C173.099 144.608 173.301 144.676 173.553 144.676C173.789 144.676 173.975 144.612 174.111 144.484C174.247 144.356 174.315 144.188 174.315 143.98C174.315 143.844 174.283 143.726 174.219 143.626C174.155 143.526 174.061 143.434 173.937 143.35C173.813 143.266 173.635 143.16 173.403 143.032C173.155 142.9 172.959 142.784 172.815 142.684C172.675 142.584 172.561 142.462 172.473 142.318C172.385 142.174 172.341 141.998 172.341 141.79C172.341 141.466 172.445 141.212 172.653 141.028C172.861 140.844 173.139 140.752 173.487 140.752C173.859 140.752 174.155 140.854 174.375 141.058C174.595 141.262 174.705 141.532 174.705 141.868V142.006C174.705 142.046 174.685 142.066 174.645 142.066H174.345C174.305 142.066 174.285 142.046 174.285 142.006V141.874C174.285 141.65 174.213 141.47 174.069 141.334C173.925 141.194 173.727 141.124 173.475 141.124C173.251 141.124 173.075 141.182 172.947 141.298C172.823 141.414 172.761 141.578 172.761 141.79C172.761 141.926 172.791 142.04 172.851 142.132C172.911 142.224 172.997 142.308 173.109 142.384C173.225 142.46 173.401 142.562 173.637 142.69C173.909 142.842 174.117 142.972 174.261 143.08C174.409 143.184 174.525 143.306 174.609 143.446C174.697 143.582 174.741 143.75 174.741 143.95C174.741 144.286 174.633 144.554 174.417 144.754C174.201 144.95 173.907 145.048 173.535 145.048Z" fill="#B1B4C5"/>
<path d="M179.846 226.219L116.774 173.296C116.21 172.823 115.37 172.896 114.896 173.46L114.896 173.461C114.422 174.025 114.496 174.866 115.06 175.339L178.131 228.262C178.695 228.735 179.536 228.662 180.009 228.098L180.01 228.097C180.483 227.533 180.41 226.692 179.846 226.219Z" fill="#B1B4C5"/>
<path fill-rule="evenodd" clip-rule="evenodd" d="M180.264 219.62L180.826 227.688C180.873 228.363 180.373 228.952 179.698 229.018C179.54 229.033 179.381 229.016 179.23 228.969C179.079 228.921 178.939 228.844 178.818 228.742C178.697 228.639 178.598 228.513 178.527 228.372C178.455 228.231 178.413 228.076 178.402 227.918L177.839 219.85C177.817 219.525 177.922 219.204 178.133 218.956C178.343 218.707 178.643 218.551 178.967 218.52C179.125 218.505 179.284 218.522 179.435 218.569C179.586 218.617 179.726 218.694 179.847 218.796C179.968 218.899 180.067 219.024 180.139 219.166C180.21 219.307 180.253 219.462 180.264 219.62V219.62Z" fill="#B1B4C5"/>
<path fill-rule="evenodd" clip-rule="evenodd" d="M171.512 227.391L179.556 226.543C179.713 226.527 179.872 226.542 180.024 226.588C180.176 226.634 180.316 226.71 180.438 226.811C180.56 226.912 180.661 227.037 180.733 227.178C180.806 227.318 180.85 227.472 180.863 227.63C180.916 228.305 180.423 228.901 179.749 228.972L171.705 229.82C171.547 229.836 171.388 229.821 171.236 229.775C171.085 229.729 170.944 229.653 170.822 229.552C170.7 229.451 170.6 229.326 170.527 229.185C170.454 229.045 170.41 228.891 170.397 228.733C170.371 228.408 170.473 228.086 170.682 227.835C170.89 227.585 171.188 227.425 171.512 227.391V227.391Z" fill="#B1B4C5"/>
<path d="M150.268 189.839C150.247 189.832 150.241 189.84 150.249 189.862C150.334 190.053 150.359 190.247 150.325 190.443C150.294 190.641 150.202 190.835 150.048 191.025C149.817 191.301 149.554 191.446 149.26 191.46C148.969 191.477 148.689 191.372 148.419 191.146L147.514 190.386C147.483 190.361 147.48 190.332 147.506 190.302L150.129 187.176C150.154 187.146 150.183 187.143 150.213 187.169L151.082 187.898C151.364 188.134 151.523 188.393 151.559 188.674C151.597 188.952 151.503 189.225 151.277 189.495C151.133 189.667 150.975 189.78 150.804 189.834C150.636 189.892 150.457 189.893 150.268 189.839ZM150.273 187.705C150.261 187.694 150.249 187.695 150.239 187.708L149.31 188.815C149.299 188.828 149.3 188.839 149.313 188.849L149.887 189.331C150.065 189.48 150.247 189.547 150.433 189.53C150.622 189.517 150.788 189.424 150.932 189.253C151.084 189.072 151.151 188.886 151.135 188.694C151.121 188.505 151.025 188.336 150.847 188.187L150.273 187.705ZM148.653 190.849C148.83 190.998 149.018 191.061 149.214 191.038C149.411 191.015 149.589 190.909 149.749 190.719C149.911 190.526 149.984 190.329 149.97 190.129C149.958 189.931 149.862 189.756 149.681 189.605L149.093 189.111C149.08 189.101 149.069 189.102 149.059 189.114L148.052 190.314C148.042 190.326 148.043 190.337 148.055 190.347L148.653 190.849Z" fill="#B1B4C5"/>
<path d="M154.192 190.914C154.166 190.945 154.138 190.948 154.107 190.922L152.728 189.765C152.716 189.755 152.705 189.756 152.694 189.768L151.738 190.908C151.728 190.92 151.729 190.931 151.741 190.941L152.669 191.721C152.7 191.746 152.702 191.774 152.677 191.805L152.515 191.998C152.489 192.029 152.461 192.031 152.43 192.005L151.502 191.226C151.489 191.216 151.478 191.217 151.468 191.229L150.504 192.378C150.493 192.391 150.494 192.402 150.507 192.412L151.886 193.569C151.916 193.595 151.919 193.623 151.893 193.654L151.731 193.847C151.705 193.877 151.677 193.88 151.646 193.854L149.969 192.447C149.938 192.421 149.936 192.393 149.961 192.362L152.584 189.237C152.61 189.206 152.638 189.203 152.668 189.229L154.346 190.637C154.377 190.663 154.379 190.691 154.353 190.721L154.192 190.914Z" fill="#B1B4C5"/>
<path d="M153.909 195.753C153.882 195.73 153.876 195.702 153.893 195.669L154.224 194.967C154.228 194.956 154.225 194.945 154.212 194.934L153.114 194.013C153.102 194.002 153.09 194 153.079 194.007L152.446 194.454C152.416 194.477 152.388 194.476 152.36 194.453L152.121 194.253C152.106 194.24 152.098 194.225 152.096 194.208C152.098 194.194 152.106 194.18 152.122 194.167L155.604 191.763C155.634 191.741 155.662 191.741 155.69 191.764L155.984 192.011C156.011 192.034 156.017 192.062 156 192.095L154.237 195.942L154.23 195.959C154.209 195.984 154.183 195.983 154.153 195.957L153.909 195.753ZM153.408 193.774C153.403 193.774 153.399 193.779 153.397 193.788C153.4 193.796 153.405 193.803 153.411 193.808L154.363 194.606C154.369 194.611 154.375 194.613 154.38 194.613C154.391 194.612 154.397 194.609 154.396 194.603L155.46 192.347C155.462 192.338 155.461 192.332 155.458 192.33C155.455 192.327 155.449 192.328 155.441 192.331L153.408 193.774Z" fill="#B1B4C5"/>
<path d="M158.775 194.353C158.806 194.379 158.808 194.407 158.782 194.438L158.621 194.631C158.595 194.661 158.567 194.664 158.536 194.638L157.787 194.01C157.775 193.999 157.763 194 157.753 194.013L155.346 196.881C155.321 196.911 155.292 196.914 155.262 196.888L155.027 196.691C154.997 196.666 154.994 196.637 155.02 196.607L157.427 193.739C157.437 193.726 157.436 193.715 157.424 193.705L156.702 193.099C156.671 193.074 156.669 193.045 156.695 193.015L156.857 192.822C156.882 192.791 156.911 192.789 156.941 192.814L158.775 194.353Z" fill="#B1B4C5"/>
<path d="M157.424 198.765C157.136 198.523 156.969 198.255 156.923 197.961C156.884 197.667 156.97 197.392 157.184 197.138L157.288 197.014C157.313 196.983 157.342 196.981 157.372 197.006L157.598 197.195C157.628 197.221 157.631 197.249 157.605 197.28L157.516 197.385C157.372 197.557 157.315 197.744 157.344 197.946C157.373 198.148 157.484 198.329 157.677 198.491C157.858 198.643 158.041 198.714 158.228 198.703C158.414 198.692 158.574 198.607 158.708 198.448C158.795 198.344 158.847 198.233 158.862 198.115C158.877 197.997 158.864 197.867 158.823 197.723C158.782 197.578 158.714 197.383 158.619 197.136C158.514 196.875 158.438 196.66 158.392 196.491C158.349 196.325 158.34 196.158 158.365 195.991C158.39 195.824 158.47 195.661 158.604 195.502C158.812 195.253 159.055 195.126 159.332 195.118C159.61 195.111 159.882 195.219 160.149 195.443C160.434 195.682 160.595 195.951 160.632 196.248C160.67 196.546 160.58 196.824 160.364 197.081L160.276 197.187C160.25 197.217 160.222 197.22 160.191 197.194L159.961 197.001C159.931 196.975 159.928 196.947 159.954 196.917L160.039 196.816C160.183 196.644 160.243 196.46 160.22 196.263C160.2 196.063 160.093 195.882 159.9 195.72C159.729 195.576 159.557 195.508 159.384 195.514C159.214 195.523 159.062 195.609 158.925 195.772C158.838 195.876 158.788 195.982 158.774 196.091C158.761 196.2 158.773 196.32 158.81 196.45C158.85 196.583 158.919 196.774 159.018 197.024C159.128 197.315 159.204 197.549 159.245 197.724C159.292 197.899 159.302 198.067 159.276 198.228C159.256 198.389 159.182 198.546 159.054 198.699C158.838 198.956 158.583 199.092 158.289 199.107C157.997 199.118 157.709 199.004 157.424 198.765Z" fill="#B1B4C5"/>
<path d="M217.988 174.335L154.916 227.258C154.352 227.731 154.279 228.572 154.752 229.136L154.752 229.137C155.226 229.701 156.067 229.774 156.63 229.301L219.702 176.378C220.266 175.904 220.339 175.064 219.866 174.5L219.866 174.499C219.392 173.935 218.552 173.861 217.988 174.335Z" fill="#B1B4C5"/>
<path fill-rule="evenodd" clip-rule="evenodd" d="M211.561 172.777L219.604 173.624C220.277 173.695 220.771 174.29 220.718 174.966C220.706 175.124 220.662 175.278 220.589 175.419C220.516 175.559 220.415 175.684 220.293 175.785C220.172 175.886 220.031 175.962 219.879 176.008C219.727 176.054 219.568 176.069 219.41 176.052L211.367 175.205C211.043 175.171 210.745 175.011 210.537 174.761C210.329 174.51 210.227 174.188 210.253 173.863C210.266 173.705 210.31 173.551 210.383 173.411C210.456 173.27 210.556 173.146 210.678 173.044C210.8 172.943 210.941 172.867 211.093 172.822C211.244 172.776 211.404 172.761 211.561 172.777V172.777Z" fill="#B1B4C5"/>
<path fill-rule="evenodd" clip-rule="evenodd" d="M217.695 182.746L218.257 174.677C218.268 174.519 218.31 174.365 218.382 174.223C218.453 174.082 218.553 173.956 218.673 173.854C218.794 173.751 218.935 173.674 219.086 173.627C219.237 173.58 219.396 173.563 219.554 173.578C220.228 173.643 220.729 174.232 220.682 174.908L220.12 182.977C220.109 183.135 220.066 183.289 219.995 183.431C219.923 183.572 219.824 183.698 219.703 183.8C219.582 183.902 219.442 183.98 219.291 184.027C219.14 184.074 218.98 184.091 218.823 184.076C218.498 184.045 218.199 183.889 217.988 183.64C217.777 183.392 217.672 183.071 217.695 182.746V182.746Z" fill="#B1B4C5"/>
<path d="M177.024 197.146C177.013 197.165 177.02 197.173 177.043 197.169C177.246 197.119 177.441 197.127 177.628 197.195C177.819 197.26 177.994 197.384 178.154 197.569C178.385 197.844 178.482 198.128 178.445 198.42C178.411 198.71 178.26 198.968 177.99 199.194L177.085 199.954C177.054 199.979 177.026 199.977 177 199.946L174.377 196.821C174.352 196.79 174.354 196.762 174.385 196.736L175.254 196.007C175.535 195.771 175.818 195.659 176.101 195.673C176.381 195.683 176.634 195.823 176.86 196.093C177.004 196.264 177.088 196.439 177.112 196.617C177.14 196.793 177.11 196.969 177.024 197.146ZM174.923 196.771C174.91 196.781 174.909 196.792 174.92 196.804L175.849 197.912C175.86 197.924 175.871 197.925 175.883 197.915L176.458 197.433C176.635 197.284 176.732 197.116 176.749 196.93C176.768 196.742 176.706 196.562 176.562 196.39C176.41 196.209 176.238 196.111 176.047 196.094C175.858 196.075 175.675 196.139 175.497 196.289L174.923 196.771ZM177.738 198.912C177.916 198.763 178.01 198.59 178.022 198.392C178.033 198.194 177.96 198 177.8 197.81C177.638 197.617 177.457 197.511 177.258 197.49C177.061 197.467 176.872 197.532 176.691 197.683L176.103 198.177C176.091 198.187 176.09 198.199 176.1 198.211L177.107 199.411C177.117 199.423 177.128 199.424 177.14 199.414L177.738 198.912Z" fill="#B1B4C5"/>
<path d="M178.764 193.469C178.79 193.5 178.787 193.528 178.757 193.553L177.378 194.71C177.366 194.721 177.365 194.732 177.375 194.744L178.331 195.884C178.342 195.896 178.353 195.897 178.365 195.887L179.294 195.108C179.324 195.082 179.353 195.085 179.378 195.115L179.54 195.308C179.566 195.339 179.563 195.367 179.533 195.393L178.604 196.172C178.592 196.182 178.591 196.194 178.601 196.206L179.566 197.355C179.576 197.367 179.587 197.368 179.599 197.358L180.978 196.201C181.009 196.175 181.037 196.178 181.063 196.208L181.225 196.401C181.251 196.432 181.248 196.46 181.217 196.486L179.54 197.894C179.509 197.919 179.481 197.917 179.455 197.886L176.833 194.761C176.807 194.73 176.809 194.702 176.84 194.676L178.518 193.268C178.548 193.243 178.577 193.245 178.602 193.276L178.764 193.469Z" fill="#B1B4C5"/>
<path d="M183.48 194.587C183.453 194.61 183.424 194.611 183.395 194.588L182.761 194.141C182.75 194.134 182.739 194.136 182.727 194.146L181.628 195.068C181.616 195.078 181.612 195.089 181.617 195.101L181.947 195.803C181.964 195.836 181.959 195.864 181.931 195.887L181.692 196.087C181.677 196.1 181.661 196.106 181.644 196.104C181.63 196.1 181.618 196.089 181.609 196.072L179.845 192.225C179.828 192.192 179.834 192.164 179.861 192.141L180.155 191.894C180.183 191.871 180.211 191.871 180.241 191.893L183.723 194.297L183.739 194.307C183.76 194.332 183.755 194.357 183.724 194.383L183.48 194.587ZM181.444 194.737C181.444 194.743 181.448 194.747 181.456 194.751C181.464 194.749 181.472 194.745 181.478 194.74L182.429 193.942C182.436 193.936 182.439 193.931 182.439 193.925C182.44 193.914 182.438 193.908 182.432 193.908L180.395 192.469C180.387 192.465 180.381 192.465 180.378 192.467C180.375 192.47 180.374 192.476 180.376 192.484L181.444 194.737Z" fill="#B1B4C5"/>
<path d="M182.947 189.552C182.977 189.526 183.006 189.529 183.031 189.559L183.193 189.753C183.219 189.783 183.216 189.811 183.186 189.837L182.437 190.466C182.424 190.476 182.423 190.487 182.434 190.5L184.84 193.368C184.866 193.398 184.864 193.426 184.833 193.452L184.598 193.649C184.568 193.675 184.54 193.672 184.514 193.641L182.107 190.773C182.097 190.761 182.086 190.76 182.074 190.77L181.352 191.376C181.321 191.402 181.293 191.399 181.267 191.369L181.105 191.175C181.08 191.145 181.082 191.117 181.113 191.091L182.947 189.552Z" fill="#B1B4C5"/>
<path d="M187.057 191.649C186.769 191.89 186.476 192.008 186.178 192.002C185.881 191.99 185.626 191.857 185.413 191.603L185.308 191.479C185.283 191.448 185.285 191.42 185.316 191.394L185.541 191.205C185.572 191.18 185.6 191.182 185.626 191.213L185.714 191.318C185.858 191.49 186.032 191.579 186.236 191.586C186.44 191.592 186.638 191.514 186.831 191.352C187.012 191.201 187.114 191.032 187.135 190.846C187.157 190.661 187.101 190.489 186.968 190.329C186.88 190.225 186.78 190.155 186.667 190.12C186.553 190.084 186.422 190.074 186.273 190.09C186.124 190.105 185.92 190.138 185.66 190.189C185.385 190.248 185.16 190.285 184.986 190.301C184.814 190.314 184.648 190.294 184.488 190.24C184.328 190.186 184.182 190.08 184.048 189.921C183.84 189.672 183.756 189.411 183.797 189.136C183.838 188.862 183.992 188.612 184.259 188.389C184.543 188.15 184.836 188.037 185.135 188.052C185.435 188.067 185.693 188.203 185.909 188.461L185.998 188.566C186.023 188.597 186.021 188.625 185.99 188.651L185.76 188.844C185.73 188.869 185.702 188.867 185.676 188.836L185.591 188.735C185.447 188.564 185.276 188.472 185.078 188.46C184.878 188.446 184.681 188.519 184.488 188.681C184.317 188.825 184.219 188.983 184.196 189.154C184.175 189.323 184.233 189.488 184.37 189.651C184.457 189.755 184.553 189.823 184.658 189.855C184.763 189.887 184.883 189.896 185.018 189.882C185.156 189.866 185.356 189.831 185.619 189.777C185.925 189.718 186.168 189.684 186.348 189.675C186.528 189.659 186.695 189.678 186.85 189.731C187.005 189.779 187.146 189.879 187.275 190.032C187.491 190.29 187.58 190.565 187.543 190.857C187.504 191.146 187.342 191.41 187.057 191.649Z" fill="#B1B4C5"/>
<path d="M184.763 127.505L212.923 204.873C213.175 205.565 213.94 205.922 214.632 205.67L214.633 205.67C215.324 205.418 215.681 204.653 215.429 203.961L187.27 126.593C187.018 125.901 186.253 125.544 185.561 125.796L185.56 125.796C184.868 126.048 184.512 126.813 184.763 127.505Z" fill="#B1B4C5"/>
<path fill-rule="evenodd" clip-rule="evenodd" d="M181.102 133.011L184.649 125.743C184.946 125.134 185.673 124.874 186.291 125.155C186.435 125.22 186.564 125.314 186.671 125.431C186.779 125.548 186.861 125.685 186.915 125.834C186.968 125.983 186.991 126.142 186.982 126.3C186.974 126.458 186.933 126.613 186.864 126.755L183.317 134.024C183.174 134.316 182.922 134.542 182.615 134.652C182.309 134.761 181.971 134.747 181.675 134.612C181.531 134.546 181.401 134.452 181.294 134.335C181.187 134.218 181.104 134.081 181.051 133.932C180.997 133.783 180.974 133.625 180.983 133.466C180.992 133.308 181.032 133.153 181.102 133.011V133.011Z" fill="#B1B4C5"/>
<path fill-rule="evenodd" clip-rule="evenodd" d="M192.567 130.657L185.177 127.369C185.032 127.305 184.902 127.212 184.793 127.096C184.685 126.981 184.601 126.845 184.546 126.696C184.491 126.547 184.467 126.389 184.474 126.231C184.481 126.073 184.52 125.917 184.588 125.774C184.879 125.163 185.605 124.893 186.224 125.169L193.614 128.457C193.759 128.522 193.889 128.614 193.997 128.73C194.106 128.846 194.19 128.982 194.245 129.13C194.299 129.279 194.324 129.437 194.317 129.595C194.31 129.754 194.271 129.909 194.203 130.052C194.063 130.346 193.814 130.574 193.508 130.687C193.202 130.8 192.865 130.789 192.567 130.657V130.657Z" fill="#B1B4C5"/>
<path d="M192.188 173.8C192.202 173.816 192.211 173.813 192.216 173.79C192.238 173.582 192.313 173.401 192.44 173.249C192.566 173.092 192.743 172.97 192.971 172.883C193.309 172.76 193.609 172.765 193.871 172.9C194.132 173.031 194.322 173.262 194.443 173.592L194.847 174.703C194.861 174.741 194.849 174.766 194.811 174.78L190.977 176.175C190.939 176.189 190.914 176.177 190.9 176.14L190.512 175.074C190.386 174.728 190.378 174.425 190.487 174.164C190.593 173.904 190.811 173.714 191.142 173.593C191.352 173.517 191.545 173.498 191.721 173.536C191.895 173.57 192.051 173.658 192.188 173.8ZM191.116 175.646C191.122 175.661 191.132 175.666 191.147 175.66L192.506 175.166C192.521 175.16 192.526 175.15 192.52 175.135L192.264 174.43C192.184 174.212 192.06 174.064 191.891 173.985C191.72 173.902 191.53 173.899 191.319 173.976C191.098 174.056 190.946 174.184 190.865 174.358C190.782 174.529 190.78 174.723 190.86 174.941L191.116 175.646ZM194.091 173.733C194.012 173.515 193.882 173.367 193.7 173.288C193.518 173.21 193.31 173.213 193.077 173.298C192.841 173.384 192.678 173.517 192.591 173.698C192.502 173.875 192.498 174.075 192.579 174.296L192.842 175.018C192.847 175.033 192.857 175.038 192.872 175.032L194.344 174.497C194.359 174.491 194.364 174.481 194.358 174.466L194.091 173.733Z" fill="#B1B4C5"/>
<path d="M189.328 170.907C189.365 170.893 189.391 170.905 189.404 170.943L190.02 172.634C190.026 172.649 190.036 172.654 190.051 172.648L191.449 172.14C191.464 172.134 191.469 172.124 191.463 172.109L191.049 170.97C191.035 170.932 191.047 170.907 191.085 170.893L191.322 170.807C191.359 170.793 191.385 170.805 191.399 170.843L191.813 171.982C191.819 171.997 191.829 172.001 191.844 171.996L193.253 171.483C193.268 171.477 193.273 171.467 193.268 171.452L192.652 169.761C192.638 169.723 192.65 169.697 192.688 169.684L192.925 169.598C192.962 169.584 192.988 169.596 193.002 169.633L193.751 171.691C193.764 171.729 193.752 171.755 193.715 171.768L189.881 173.164C189.843 173.177 189.818 173.165 189.804 173.128L189.055 171.07C189.041 171.032 189.053 171.007 189.091 170.993L189.328 170.907Z" fill="#B1B4C5"/>
<path d="M191.991 166.858C192.004 166.891 191.994 166.918 191.963 166.938L191.326 167.381C191.316 167.389 191.314 167.4 191.319 167.415L191.81 168.763C191.815 168.778 191.824 168.785 191.837 168.785L192.61 168.714C192.646 168.709 192.671 168.724 192.683 168.758L192.79 169.051C192.796 169.07 192.796 169.087 192.789 169.102C192.781 169.114 192.766 169.121 192.746 169.124L188.528 169.465C188.492 169.47 188.467 169.456 188.455 169.422L188.324 169.061C188.311 169.027 188.321 169 188.352 168.98L191.802 166.531L191.817 166.519C191.847 166.508 191.869 166.521 191.883 166.559L191.991 166.858ZM191.436 168.822C191.441 168.825 191.446 168.822 191.453 168.816C191.454 168.807 191.453 168.799 191.45 168.791L191.025 167.624C191.023 167.617 191.019 167.612 191.013 167.609C191.003 167.605 190.997 167.605 190.994 167.61L188.945 169.033C188.939 169.039 188.937 169.044 188.938 169.048C188.94 169.052 188.945 169.054 188.954 169.055L191.436 168.822Z" fill="#B1B4C5"/>
<path d="M187.077 165.637C187.064 165.599 187.076 165.574 187.113 165.56L187.35 165.474C187.388 165.46 187.413 165.472 187.427 165.51L187.762 166.429C187.767 166.444 187.777 166.449 187.792 166.443L191.31 165.163C191.348 165.149 191.374 165.161 191.387 165.198L191.492 165.486C191.506 165.524 191.494 165.549 191.456 165.563L187.938 166.843C187.923 166.849 187.918 166.859 187.924 166.874L188.246 167.759C188.26 167.797 188.248 167.823 188.21 167.836L187.973 167.922C187.936 167.936 187.91 167.924 187.896 167.887L187.077 165.637Z" fill="#B1B4C5"/>
<path d="M190.453 162.492C190.582 162.845 190.593 163.161 190.485 163.438C190.372 163.713 190.16 163.908 189.848 164.021L189.696 164.077C189.658 164.09 189.632 164.078 189.619 164.041L189.518 163.765C189.505 163.727 189.517 163.701 189.554 163.688L189.684 163.64C189.894 163.564 190.037 163.431 190.113 163.241C190.189 163.052 190.184 162.839 190.098 162.602C190.017 162.38 189.893 162.228 189.726 162.144C189.56 162.06 189.378 162.053 189.183 162.124C189.055 162.171 188.955 162.241 188.883 162.336C188.811 162.43 188.757 162.55 188.72 162.695C188.684 162.84 188.645 163.044 188.604 163.305C188.565 163.584 188.523 163.808 188.478 163.977C188.432 164.143 188.356 164.292 188.251 164.424C188.146 164.556 187.996 164.657 187.8 164.728C187.496 164.839 187.222 164.828 186.977 164.696C186.733 164.563 186.552 164.333 186.433 164.006C186.306 163.657 186.3 163.344 186.417 163.067C186.533 162.791 186.749 162.595 187.065 162.48L187.195 162.433C187.232 162.419 187.258 162.431 187.272 162.469L187.374 162.751C187.388 162.788 187.376 162.814 187.338 162.828L187.214 162.873C187.004 162.949 186.859 163.079 186.781 163.26C186.698 163.444 186.7 163.654 186.787 163.89C186.863 164.101 186.978 164.246 187.131 164.327C187.282 164.404 187.457 164.406 187.657 164.334C187.784 164.287 187.881 164.22 187.947 164.132C188.013 164.044 188.063 163.935 188.096 163.803C188.128 163.668 188.163 163.468 188.203 163.203C188.253 162.895 188.304 162.655 188.356 162.483C188.403 162.308 188.478 162.157 188.581 162.031C188.678 161.901 188.821 161.803 189.009 161.734C189.325 161.619 189.614 161.629 189.875 161.764C190.134 161.9 190.326 162.142 190.453 162.492Z" fill="#B1B4C5"/>
<path d="M123.63 203.355L151.789 125.987C152.041 125.295 151.685 124.53 150.993 124.278L150.992 124.278C150.3 124.026 149.535 124.383 149.283 125.075L121.123 202.443C120.872 203.135 121.228 203.9 121.92 204.152L121.921 204.152C122.613 204.404 123.378 204.047 123.63 203.355Z" fill="#B1B4C5"/>
<path fill-rule="evenodd" clip-rule="evenodd" d="M129.974 201.491L122.585 204.779C121.966 205.054 121.241 204.786 120.949 204.174C120.881 204.031 120.842 203.876 120.835 203.717C120.828 203.559 120.853 203.401 120.908 203.252C120.963 203.104 121.047 202.968 121.155 202.852C121.264 202.737 121.394 202.644 121.539 202.58L128.928 199.292C129.226 199.159 129.563 199.148 129.869 199.261C130.175 199.374 130.424 199.602 130.564 199.896C130.632 200.04 130.67 200.195 130.678 200.353C130.685 200.511 130.66 200.669 130.605 200.818C130.55 200.967 130.466 201.103 130.357 201.218C130.249 201.334 130.119 201.427 129.974 201.491V201.491Z" fill="#B1B4C5"/>
<path fill-rule="evenodd" clip-rule="evenodd" d="M119.678 195.925L123.226 203.193C123.295 203.336 123.335 203.491 123.344 203.649C123.353 203.807 123.33 203.965 123.276 204.115C123.223 204.264 123.14 204.401 123.033 204.517C122.925 204.634 122.796 204.728 122.652 204.794C122.035 205.075 121.306 204.815 121.01 204.206L117.462 196.937C117.392 196.794 117.352 196.64 117.344 196.481C117.335 196.323 117.358 196.165 117.411 196.016C117.465 195.867 117.548 195.73 117.655 195.613C117.762 195.496 117.892 195.402 118.036 195.337C118.332 195.201 118.67 195.187 118.976 195.297C119.283 195.406 119.535 195.632 119.678 195.925V195.925Z" fill="#B1B4C5"/>
<path d="M147.701 163.118C147.7 163.097 147.691 163.093 147.673 163.108C147.522 163.253 147.349 163.343 147.153 163.378C146.955 163.417 146.742 163.397 146.511 163.317C146.173 163.194 145.946 162.997 145.832 162.725C145.717 162.458 145.719 162.159 145.84 161.828L146.244 160.717C146.258 160.68 146.283 160.668 146.321 160.681L150.155 162.077C150.193 162.09 150.204 162.116 150.191 162.154L149.803 163.219C149.677 163.565 149.488 163.803 149.237 163.933C148.989 164.064 148.7 164.069 148.369 163.949C148.158 163.872 147.998 163.763 147.888 163.621C147.777 163.482 147.714 163.315 147.701 163.118ZM149.708 162.393C149.713 162.378 149.709 162.368 149.693 162.362L148.335 161.868C148.32 161.862 148.309 161.867 148.304 161.882L148.047 162.587C147.968 162.805 147.968 162.998 148.047 163.167C148.124 163.34 148.268 163.465 148.479 163.542C148.701 163.622 148.899 163.622 149.073 163.541C149.246 163.463 149.372 163.316 149.451 163.098L149.708 162.393ZM146.199 161.946C146.12 162.164 146.124 162.361 146.213 162.538C146.302 162.715 146.463 162.846 146.696 162.931C146.933 163.017 147.143 163.019 147.326 162.937C147.508 162.859 147.639 162.708 147.72 162.487L147.983 161.765C147.988 161.75 147.983 161.74 147.968 161.734L146.497 161.199C146.482 161.193 146.471 161.198 146.466 161.213L146.199 161.946Z" fill="#B1B4C5"/>
<path d="M148.032 167.173C147.994 167.159 147.982 167.134 147.996 167.096L148.612 165.405C148.617 165.39 148.612 165.379 148.597 165.374L147.199 164.865C147.184 164.859 147.174 164.864 147.168 164.879L146.754 166.018C146.74 166.056 146.714 166.068 146.677 166.054L146.44 165.968C146.402 165.954 146.39 165.929 146.404 165.891L146.819 164.752C146.824 164.737 146.819 164.727 146.804 164.721L145.395 164.208C145.38 164.203 145.37 164.208 145.364 164.223L144.748 165.914C144.735 165.952 144.709 165.964 144.672 165.95L144.435 165.864C144.397 165.85 144.385 165.824 144.399 165.787L145.148 163.729C145.162 163.691 145.187 163.679 145.225 163.693L149.059 165.088C149.096 165.102 149.108 165.128 149.095 165.165L148.346 167.223C148.332 167.261 148.306 167.273 148.269 167.259L148.032 167.173Z" fill="#B1B4C5"/>
<path d="M143.389 168.563C143.401 168.529 143.425 168.514 143.462 168.519L144.234 168.59C144.247 168.59 144.256 168.583 144.262 168.567L144.752 167.22C144.757 167.205 144.755 167.193 144.745 167.186L144.108 166.743C144.077 166.723 144.068 166.696 144.08 166.663L144.187 166.369C144.194 166.351 144.205 166.338 144.22 166.33C144.234 166.327 144.25 166.331 144.267 166.341L147.718 168.791C147.749 168.811 147.758 168.838 147.746 168.871L147.614 169.232C147.602 169.266 147.578 169.281 147.541 169.276L143.323 168.935L143.304 168.934C143.274 168.923 143.266 168.899 143.28 168.861L143.389 168.563ZM145.077 167.415C145.075 167.41 145.069 167.408 145.06 167.409C145.054 167.415 145.049 167.422 145.046 167.429L144.621 168.596C144.619 168.604 144.618 168.61 144.621 168.615C144.626 168.626 144.631 168.629 144.636 168.627L147.12 168.854C147.129 168.853 147.134 168.851 147.135 168.847C147.137 168.843 147.134 168.838 147.128 168.832L145.077 167.415Z" fill="#B1B4C5"/>
<path d="M146.368 172.656C146.354 172.694 146.329 172.706 146.291 172.692L146.054 172.606C146.017 172.592 146.005 172.567 146.019 172.529L146.353 171.61C146.359 171.595 146.354 171.585 146.339 171.579L142.82 170.299C142.783 170.285 142.771 170.259 142.785 170.222L142.889 169.934C142.903 169.897 142.929 169.885 142.966 169.898L146.484 171.179C146.499 171.184 146.51 171.18 146.515 171.165L146.837 170.279C146.851 170.242 146.877 170.23 146.914 170.244L147.151 170.33C147.189 170.343 147.201 170.369 147.187 170.407L146.368 172.656Z" fill="#B1B4C5"/>
<path d="M141.76 172.896C141.889 172.542 142.084 172.294 142.345 172.15C142.608 172.012 142.895 172 143.207 172.113L143.359 172.169C143.397 172.182 143.409 172.208 143.395 172.245L143.295 172.522C143.281 172.559 143.255 172.571 143.218 172.558L143.088 172.51C142.878 172.434 142.683 172.444 142.503 172.54C142.323 172.636 142.19 172.803 142.104 173.04C142.023 173.261 142.02 173.458 142.093 173.63C142.167 173.801 142.302 173.923 142.497 173.994C142.625 174.04 142.747 174.051 142.863 174.025C142.979 173.999 143.097 173.942 143.219 173.854C143.34 173.766 143.5 173.635 143.7 173.461C143.909 173.273 144.085 173.129 144.228 173.027C144.37 172.93 144.524 172.865 144.689 172.831C144.854 172.798 145.035 172.817 145.23 172.888C145.535 172.999 145.738 173.183 145.84 173.442C145.941 173.7 145.933 173.993 145.814 174.32C145.687 174.669 145.489 174.913 145.223 175.05C144.956 175.186 144.664 175.197 144.348 175.083L144.219 175.035C144.181 175.022 144.169 174.996 144.183 174.958L144.286 174.677C144.299 174.639 144.325 174.627 144.362 174.641L144.486 174.686C144.697 174.762 144.891 174.756 145.068 174.668C145.249 174.58 145.382 174.418 145.468 174.181C145.545 173.971 145.551 173.785 145.485 173.626C145.419 173.469 145.286 173.355 145.087 173.282C144.959 173.236 144.841 173.225 144.735 173.25C144.628 173.275 144.519 173.327 144.409 173.406C144.298 173.489 144.142 173.62 143.941 173.798C143.705 174.001 143.512 174.152 143.361 174.251C143.213 174.354 143.059 174.422 142.898 174.453C142.741 174.489 142.568 174.473 142.38 174.404C142.064 174.289 141.849 174.096 141.735 173.825C141.625 173.555 141.633 173.245 141.76 172.896Z" fill="#B1B4C5"/>
<path d="M256.246 59.9849C256.209 59.9996 256.209 60.0179 256.246 60.0399C256.591 60.2086 256.855 60.4506 257.038 60.7659C257.229 61.0812 257.328 61.4626 257.335 61.9099C257.335 62.5699 257.137 63.0832 256.741 63.4499C256.352 63.8166 255.835 63.9999 255.19 63.9999H253.023C252.95 63.9999 252.913 63.9632 252.913 63.8899V56.4099C252.913 56.3366 252.95 56.2999 253.023 56.2999H255.102C255.777 56.2999 256.305 56.4759 256.686 56.8279C257.067 57.1726 257.258 57.6676 257.258 58.3129C257.258 58.7236 257.17 59.0682 256.994 59.3469C256.825 59.6256 256.576 59.8382 256.246 59.9849ZM253.738 56.9819C253.709 56.9819 253.694 56.9966 253.694 57.0259V59.6769C253.694 59.7062 253.709 59.7209 253.738 59.7209H255.113C255.538 59.7209 255.872 59.5999 256.114 59.3579C256.363 59.1159 256.488 58.7896 256.488 58.3789C256.488 57.9462 256.363 57.6052 256.114 57.3559C255.872 57.1066 255.538 56.9819 255.113 56.9819H253.738ZM255.168 63.3069C255.593 63.3069 255.931 63.1749 256.18 62.9109C256.429 62.6469 256.554 62.2876 256.554 61.8329C256.554 61.3709 256.426 61.0079 256.169 60.7439C255.92 60.4799 255.579 60.3479 255.146 60.3479H253.738C253.709 60.3479 253.694 60.3626 253.694 60.3919V63.2629C253.694 63.2922 253.709 63.3069 253.738 63.3069H255.168Z" fill="#B1B4C5"/>
<path d="M263.024 56.8719C263.024 56.9452 262.987 56.9819 262.914 56.9819H259.614C259.585 56.9819 259.57 56.9966 259.57 57.0259V59.7539C259.57 59.7832 259.585 59.7979 259.614 59.7979H261.836C261.909 59.7979 261.946 59.8346 261.946 59.9079V60.3699C261.946 60.4432 261.909 60.4799 261.836 60.4799H259.614C259.585 60.4799 259.57 60.4946 259.57 60.5239V63.2739C259.57 63.3032 259.585 63.3179 259.614 63.3179H262.914C262.987 63.3179 263.024 63.3546 263.024 63.4279V63.8899C263.024 63.9632 262.987 63.9999 262.914 63.9999H258.899C258.826 63.9999 258.789 63.9632 258.789 63.8899V56.4099C258.789 56.3366 258.826 56.2999 258.899 56.2999H262.914C262.987 56.2999 263.024 56.3366 263.024 56.4099V56.8719Z" fill="#B1B4C5"/>
<path d="M268.33 63.9999C268.264 63.9999 268.223 63.9669 268.209 63.9009L267.846 62.5259C267.838 62.5039 267.82 62.4929 267.791 62.4929H265.162C265.132 62.4929 265.114 62.5039 265.107 62.5259L264.744 63.9009C264.729 63.9669 264.689 63.9999 264.623 63.9999H264.051C264.014 63.9999 263.985 63.9889 263.963 63.9669C263.948 63.9449 263.944 63.9156 263.952 63.8789L266.009 56.3989C266.023 56.3329 266.064 56.2999 266.13 56.2999H266.834C266.9 56.2999 266.94 56.3329 266.955 56.3989L269.012 63.8789L269.023 63.9119C269.023 63.9706 268.986 63.9999 268.913 63.9999H268.33ZM265.294 61.8109C265.286 61.8182 265.286 61.8292 265.294 61.8439C265.308 61.8512 265.323 61.8549 265.338 61.8549H267.615C267.629 61.8549 267.64 61.8512 267.648 61.8439C267.662 61.8292 267.666 61.8182 267.659 61.8109L266.493 57.3889C266.485 57.3742 266.478 57.3669 266.471 57.3669C266.463 57.3669 266.456 57.3742 266.449 57.3889L265.294 61.8109Z" fill="#B1B4C5"/>
<path d="M273.514 56.2999C273.587 56.2999 273.624 56.3366 273.624 56.4099V56.8719C273.624 56.9452 273.587 56.9819 273.514 56.9819H271.721C271.691 56.9819 271.677 56.9966 271.677 57.0259V63.8899C271.677 63.9632 271.64 63.9999 271.567 63.9999H271.006C270.932 63.9999 270.896 63.9632 270.896 63.8899V57.0259C270.896 56.9966 270.881 56.9819 270.852 56.9819H269.125C269.051 56.9819 269.015 56.9452 269.015 56.8719V56.4099C269.015 56.3366 269.051 56.2999 269.125 56.2999H273.514Z" fill="#B1B4C5"/>
<path d="M276.815 64.0879C276.126 64.0879 275.576 63.9082 275.165 63.5489C274.762 63.1822 274.56 62.6946 274.56 62.0859V61.7889C274.56 61.7156 274.597 61.6789 274.67 61.6789H275.209C275.282 61.6789 275.319 61.7156 275.319 61.7889V62.0419C275.319 62.4526 275.458 62.7826 275.737 63.0319C276.016 63.2812 276.386 63.4059 276.848 63.4059C277.281 63.4059 277.622 63.2886 277.871 63.0539C278.12 62.8192 278.245 62.5112 278.245 62.1299C278.245 61.8806 278.186 61.6642 278.069 61.4809C277.952 61.2976 277.779 61.1289 277.552 60.9749C277.325 60.8209 276.998 60.6266 276.573 60.3919C276.118 60.1499 275.759 59.9372 275.495 59.7539C275.238 59.5706 275.029 59.3469 274.868 59.0829C274.707 58.8189 274.626 58.4962 274.626 58.1149C274.626 57.5209 274.817 57.0552 275.198 56.7179C275.579 56.3806 276.089 56.2119 276.727 56.2119C277.409 56.2119 277.952 56.3989 278.355 56.7729C278.758 57.1469 278.96 57.6419 278.96 58.2579V58.5109C278.96 58.5842 278.923 58.6209 278.85 58.6209H278.3C278.227 58.6209 278.19 58.5842 278.19 58.5109V58.2689C278.19 57.8582 278.058 57.5282 277.794 57.2789C277.53 57.0222 277.167 56.8939 276.705 56.8939C276.294 56.8939 275.972 57.0002 275.737 57.2129C275.51 57.4256 275.396 57.7262 275.396 58.1149C275.396 58.3642 275.451 58.5732 275.561 58.7419C275.671 58.9106 275.829 59.0646 276.034 59.2039C276.247 59.3432 276.569 59.5302 277.002 59.7649C277.501 60.0436 277.882 60.2819 278.146 60.4799C278.417 60.6706 278.63 60.8942 278.784 61.1509C278.945 61.4002 279.026 61.7082 279.026 62.0749C279.026 62.6909 278.828 63.1822 278.432 63.5489C278.036 63.9082 277.497 64.0879 276.815 64.0879Z" fill="#B1B4C5"/>
<path d="M59.2461 59.9849C59.2094 59.9996 59.2094 60.0179 59.2461 60.0399C59.5908 60.2086 59.8548 60.4506 60.0381 60.7659C60.2288 61.0812 60.3278 61.4626 60.3351 61.9099C60.3351 62.5699 60.1371 63.0832 59.7411 63.4499C59.3524 63.8166 58.8354 63.9999 58.1901 63.9999H56.0231C55.9498 63.9999 55.9131 63.9632 55.9131 63.8899V56.4099C55.9131 56.3366 55.9498 56.2999 56.0231 56.2999H58.1021C58.7768 56.2999 59.3048 56.4759 59.6861 56.8279C60.0674 57.1726 60.2581 57.6676 60.2581 58.3129C60.2581 58.7236 60.1701 59.0682 59.9941 59.3469C59.8254 59.6256 59.5761 59.8382 59.2461 59.9849ZM56.7381 56.9819C56.7088 56.9819 56.6941 56.9966 56.6941 57.0259V59.6769C56.6941 59.7062 56.7088 59.7209 56.7381 59.7209H58.1131C58.5384 59.7209 58.8721 59.5999 59.1141 59.3579C59.3634 59.1159 59.4881 58.7896 59.4881 58.3789C59.4881 57.9462 59.3634 57.6052 59.1141 57.3559C58.8721 57.1066 58.5384 56.9819 58.1131 56.9819H56.7381ZM58.1681 63.3069C58.5934 63.3069 58.9308 63.1749 59.1801 62.9109C59.4294 62.6469 59.5541 62.2876 59.5541 61.8329C59.5541 61.3709 59.4258 61.0079 59.1691 60.7439C58.9198 60.4799 58.5788 60.3479 58.1461 60.3479H56.7381C56.7088 60.3479 56.6941 60.3626 56.6941 60.3919V63.2629C56.6941 63.2922 56.7088 63.3069 56.7381 63.3069H58.1681Z" fill="#B1B4C5"/>
<path d="M66.0241 56.8719C66.0241 56.9452 65.9874 56.9819 65.9141 56.9819H62.6141C62.5847 56.9819 62.5701 56.9966 62.5701 57.0259V59.7539C62.5701 59.7832 62.5847 59.7979 62.6141 59.7979H64.8361C64.9094 59.7979 64.9461 59.8346 64.9461 59.9079V60.3699C64.9461 60.4432 64.9094 60.4799 64.8361 60.4799H62.6141C62.5847 60.4799 62.5701 60.4946 62.5701 60.5239V63.2739C62.5701 63.3032 62.5847 63.3179 62.6141 63.3179H65.9141C65.9874 63.3179 66.0241 63.3546 66.0241 63.4279V63.8899C66.0241 63.9632 65.9874 63.9999 65.9141 63.9999H61.8991C61.8257 63.9999 61.7891 63.9632 61.7891 63.8899V56.4099C61.7891 56.3366 61.8257 56.2999 61.8991 56.2999H65.9141C65.9874 56.2999 66.0241 56.3366 66.0241 56.4099V56.8719Z" fill="#B1B4C5"/>
<path d="M71.3296 63.9999C71.2636 63.9999 71.2233 63.9669 71.2086 63.9009L70.8456 62.5259C70.8383 62.5039 70.8199 62.4929 70.7906 62.4929H68.1616C68.1323 62.4929 68.1139 62.5039 68.1066 62.5259L67.7436 63.9009C67.7289 63.9669 67.6886 63.9999 67.6226 63.9999H67.0506C67.0139 63.9999 66.9846 63.9889 66.9626 63.9669C66.9479 63.9449 66.9443 63.9156 66.9516 63.8789L69.0086 56.3989C69.0233 56.3329 69.0636 56.2999 69.1296 56.2999H69.8336C69.8996 56.2999 69.9399 56.3329 69.9546 56.3989L72.0116 63.8789L72.0226 63.9119C72.0226 63.9706 71.9859 63.9999 71.9126 63.9999H71.3296ZM68.2936 61.8109C68.2863 61.8182 68.2863 61.8292 68.2936 61.8439C68.3083 61.8512 68.3229 61.8549 68.3376 61.8549H70.6146C70.6293 61.8549 70.6403 61.8512 70.6476 61.8439C70.6623 61.8292 70.6659 61.8182 70.6586 61.8109L69.4926 57.3889C69.4853 57.3742 69.4779 57.3669 69.4706 57.3669C69.4633 57.3669 69.4559 57.3742 69.4486 57.3889L68.2936 61.8109Z" fill="#B1B4C5"/>
<path d="M76.5138 56.2999C76.5871 56.2999 76.6238 56.3366 76.6238 56.4099V56.8719C76.6238 56.9452 76.5871 56.9819 76.5138 56.9819H74.7208C74.6914 56.9819 74.6768 56.9966 74.6768 57.0259V63.8899C74.6768 63.9632 74.6401 63.9999 74.5668 63.9999H74.0058C73.9324 63.9999 73.8958 63.9632 73.8958 63.8899V57.0259C73.8958 56.9966 73.8811 56.9819 73.8518 56.9819H72.1248C72.0514 56.9819 72.0148 56.9452 72.0148 56.8719V56.4099C72.0148 56.3366 72.0514 56.2999 72.1248 56.2999H76.5138Z" fill="#B1B4C5"/>
<path d="M79.8151 64.0879C79.1257 64.0879 78.5757 63.9082 78.1651 63.5489C77.7617 63.1822 77.5601 62.6946 77.5601 62.0859V61.7889C77.5601 61.7156 77.5967 61.6789 77.6701 61.6789H78.2091C78.2824 61.6789 78.3191 61.7156 78.3191 61.7889V62.0419C78.3191 62.4526 78.4584 62.7826 78.7371 63.0319C79.0157 63.2812 79.3861 63.4059 79.8481 63.4059C80.2807 63.4059 80.6217 63.2886 80.8711 63.0539C81.1204 62.8192 81.2451 62.5112 81.2451 62.1299C81.2451 61.8806 81.1864 61.6642 81.0691 61.4809C80.9517 61.2976 80.7794 61.1289 80.5521 60.9749C80.3247 60.8209 79.9984 60.6266 79.5731 60.3919C79.1184 60.1499 78.7591 59.9372 78.4951 59.7539C78.2384 59.5706 78.0294 59.3469 77.8681 59.0829C77.7067 58.8189 77.6261 58.4962 77.6261 58.1149C77.6261 57.5209 77.8167 57.0552 78.1981 56.7179C78.5794 56.3806 79.0891 56.2119 79.7271 56.2119C80.4091 56.2119 80.9517 56.3989 81.3551 56.7729C81.7584 57.1469 81.9601 57.6419 81.9601 58.2579V58.5109C81.9601 58.5842 81.9234 58.6209 81.8501 58.6209H81.3001C81.2267 58.6209 81.1901 58.5842 81.1901 58.5109V58.2689C81.1901 57.8582 81.0581 57.5282 80.7941 57.2789C80.5301 57.0222 80.1671 56.8939 79.7051 56.8939C79.2944 56.8939 78.9717 57.0002 78.7371 57.2129C78.5097 57.4256 78.3961 57.7262 78.3961 58.1149C78.3961 58.3642 78.4511 58.5732 78.5611 58.7419C78.6711 58.9106 78.8287 59.0646 79.0341 59.2039C79.2467 59.3432 79.5694 59.5302 80.0021 59.7649C80.5007 60.0436 80.8821 60.2819 81.1461 60.4799C81.4174 60.6706 81.6301 60.8942 81.7841 61.1509C81.9454 61.4002 82.0261 61.7082 82.0261 62.0749C82.0261 62.6909 81.8281 63.1822 81.4321 63.5489C81.0361 63.9082 80.4971 64.0879 79.8151 64.0879Z" fill="#B1B4C5"/>
<path d="M309.246 220.985C309.209 221 309.209 221.018 309.246 221.04C309.591 221.209 309.855 221.451 310.038 221.766C310.229 222.081 310.328 222.463 310.335 222.91C310.335 223.57 310.137 224.083 309.741 224.45C309.352 224.817 308.835 225 308.19 225H306.023C305.95 225 305.913 224.963 305.913 224.89V217.41C305.913 217.337 305.95 217.3 306.023 217.3H308.102C308.777 217.3 309.305 217.476 309.686 217.828C310.067 218.173 310.258 218.668 310.258 219.313C310.258 219.724 310.17 220.068 309.994 220.347C309.825 220.626 309.576 220.838 309.246 220.985ZM306.738 217.982C306.709 217.982 306.694 217.997 306.694 218.026V220.677C306.694 220.706 306.709 220.721 306.738 220.721H308.113C308.538 220.721 308.872 220.6 309.114 220.358C309.363 220.116 309.488 219.79 309.488 219.379C309.488 218.946 309.363 218.605 309.114 218.356C308.872 218.107 308.538 217.982 308.113 217.982H306.738ZM308.168 224.307C308.593 224.307 308.931 224.175 309.18 223.911C309.429 223.647 309.554 223.288 309.554 222.833C309.554 222.371 309.426 222.008 309.169 221.744C308.92 221.48 308.579 221.348 308.146 221.348H306.738C306.709 221.348 306.694 221.363 306.694 221.392V224.263C306.694 224.292 306.709 224.307 306.738 224.307H308.168Z" fill="#B1B4C5"/>
<path d="M316.024 217.872C316.024 217.945 315.987 217.982 315.914 217.982H312.614C312.585 217.982 312.57 217.997 312.57 218.026V220.754C312.57 220.783 312.585 220.798 312.614 220.798H314.836C314.909 220.798 314.946 220.835 314.946 220.908V221.37C314.946 221.443 314.909 221.48 314.836 221.48H312.614C312.585 221.48 312.57 221.495 312.57 221.524V224.274C312.57 224.303 312.585 224.318 312.614 224.318H315.914C315.987 224.318 316.024 224.355 316.024 224.428V224.89C316.024 224.963 315.987 225 315.914 225H311.899C311.826 225 311.789 224.963 311.789 224.89V217.41C311.789 217.337 311.826 217.3 311.899 217.3H315.914C315.987 217.3 316.024 217.337 316.024 217.41V217.872Z" fill="#B1B4C5"/>
<path d="M321.33 225C321.264 225 321.223 224.967 321.209 224.901L320.846 223.526C320.838 223.504 320.82 223.493 320.791 223.493H318.162C318.132 223.493 318.114 223.504 318.107 223.526L317.744 224.901C317.729 224.967 317.689 225 317.623 225H317.051C317.014 225 316.985 224.989 316.963 224.967C316.948 224.945 316.944 224.916 316.952 224.879L319.009 217.399C319.023 217.333 319.064 217.3 319.13 217.3H319.834C319.9 217.3 319.94 217.333 319.955 217.399L322.012 224.879L322.023 224.912C322.023 224.971 321.986 225 321.913 225H321.33ZM318.294 222.811C318.286 222.818 318.286 222.829 318.294 222.844C318.308 222.851 318.323 222.855 318.338 222.855H320.615C320.629 222.855 320.64 222.851 320.648 222.844C320.662 222.829 320.666 222.818 320.659 222.811L319.493 218.389C319.485 218.374 319.478 218.367 319.471 218.367C319.463 218.367 319.456 218.374 319.449 218.389L318.294 222.811Z" fill="#B1B4C5"/>
<path d="M326.514 217.3C326.587 217.3 326.624 217.337 326.624 217.41V217.872C326.624 217.945 326.587 217.982 326.514 217.982H324.721C324.691 217.982 324.677 217.997 324.677 218.026V224.89C324.677 224.963 324.64 225 324.567 225H324.006C323.932 225 323.896 224.963 323.896 224.89V218.026C323.896 217.997 323.881 217.982 323.852 217.982H322.125C322.051 217.982 322.015 217.945 322.015 217.872V217.41C322.015 217.337 322.051 217.3 322.125 217.3H326.514Z" fill="#B1B4C5"/>
<path d="M329.815 225.088C329.126 225.088 328.576 224.908 328.165 224.549C327.762 224.182 327.56 223.695 327.56 223.086V222.789C327.56 222.716 327.597 222.679 327.67 222.679H328.209C328.282 222.679 328.319 222.716 328.319 222.789V223.042C328.319 223.453 328.458 223.783 328.737 224.032C329.016 224.281 329.386 224.406 329.848 224.406C330.281 224.406 330.622 224.289 330.871 224.054C331.12 223.819 331.245 223.511 331.245 223.13C331.245 222.881 331.186 222.664 331.069 222.481C330.952 222.298 330.779 222.129 330.552 221.975C330.325 221.821 329.998 221.627 329.573 221.392C329.118 221.15 328.759 220.937 328.495 220.754C328.238 220.571 328.029 220.347 327.868 220.083C327.707 219.819 327.626 219.496 327.626 219.115C327.626 218.521 327.817 218.055 328.198 217.718C328.579 217.381 329.089 217.212 329.727 217.212C330.409 217.212 330.952 217.399 331.355 217.773C331.758 218.147 331.96 218.642 331.96 219.258V219.511C331.96 219.584 331.923 219.621 331.85 219.621H331.3C331.227 219.621 331.19 219.584 331.19 219.511V219.269C331.19 218.858 331.058 218.528 330.794 218.279C330.53 218.022 330.167 217.894 329.705 217.894C329.294 217.894 328.972 218 328.737 218.213C328.51 218.426 328.396 218.726 328.396 219.115C328.396 219.364 328.451 219.573 328.561 219.742C328.671 219.911 328.829 220.065 329.034 220.204C329.247 220.343 329.569 220.53 330.002 220.765C330.501 221.044 330.882 221.282 331.146 221.48C331.417 221.671 331.63 221.894 331.784 222.151C331.945 222.4 332.026 222.708 332.026 223.075C332.026 223.691 331.828 224.182 331.432 224.549C331.036 224.908 330.497 225.088 329.815 225.088Z" fill="#B1B4C5"/>
<path d="M5.24609 221.985C5.20942 222 5.20942 222.018 5.24609 222.04C5.59075 222.209 5.85475 222.451 6.03809 222.766C6.22875 223.081 6.32775 223.463 6.33509 223.91C6.33509 224.57 6.13709 225.083 5.74109 225.45C5.35242 225.817 4.83542 226 4.19009 226H2.02309C1.94975 226 1.91309 225.963 1.91309 225.89V218.41C1.91309 218.337 1.94975 218.3 2.02309 218.3H4.10209C4.77675 218.3 5.30475 218.476 5.68609 218.828C6.06742 219.173 6.25809 219.668 6.25809 220.313C6.25809 220.724 6.17009 221.068 5.99409 221.347C5.82542 221.626 5.57609 221.838 5.24609 221.985ZM2.73809 218.982C2.70875 218.982 2.69409 218.997 2.69409 219.026V221.677C2.69409 221.706 2.70875 221.721 2.73809 221.721H4.11309C4.53842 221.721 4.87209 221.6 5.11409 221.358C5.36342 221.116 5.48809 220.79 5.48809 220.379C5.48809 219.946 5.36342 219.605 5.11409 219.356C4.87209 219.107 4.53842 218.982 4.11309 218.982H2.73809ZM4.16809 225.307C4.59342 225.307 4.93075 225.175 5.18009 224.911C5.42942 224.647 5.55409 224.288 5.55409 223.833C5.55409 223.371 5.42575 223.008 5.16909 222.744C4.91975 222.48 4.57875 222.348 4.14609 222.348H2.73809C2.70875 222.348 2.69409 222.363 2.69409 222.392V225.263C2.69409 225.292 2.70875 225.307 2.73809 225.307H4.16809Z" fill="#B1B4C5"/>
<path d="M12.0241 218.872C12.0241 218.945 11.9874 218.982 11.9141 218.982H8.61406C8.58473 218.982 8.57006 218.997 8.57006 219.026V221.754C8.57006 221.783 8.58473 221.798 8.61406 221.798H10.8361C10.9094 221.798 10.9461 221.835 10.9461 221.908V222.37C10.9461 222.443 10.9094 222.48 10.8361 222.48H8.61406C8.58473 222.48 8.57006 222.495 8.57006 222.524V225.274C8.57006 225.303 8.58473 225.318 8.61406 225.318H11.9141C11.9874 225.318 12.0241 225.355 12.0241 225.428V225.89C12.0241 225.963 11.9874 226 11.9141 226H7.89906C7.82573 226 7.78906 225.963 7.78906 225.89V218.41C7.78906 218.337 7.82573 218.3 7.89906 218.3H11.9141C11.9874 218.3 12.0241 218.337 12.0241 218.41V218.872Z" fill="#B1B4C5"/>
<path d="M17.3296 226C17.2636 226 17.2233 225.967 17.2086 225.901L16.8456 224.526C16.8383 224.504 16.8199 224.493 16.7906 224.493H14.1616C14.1323 224.493 14.1139 224.504 14.1066 224.526L13.7436 225.901C13.7289 225.967 13.6886 226 13.6226 226H13.0506C13.0139 226 12.9846 225.989 12.9626 225.967C12.9479 225.945 12.9443 225.916 12.9516 225.879L15.0086 218.399C15.0233 218.333 15.0636 218.3 15.1296 218.3H15.8336C15.8996 218.3 15.9399 218.333 15.9546 218.399L18.0116 225.879L18.0226 225.912C18.0226 225.971 17.9859 226 17.9126 226H17.3296ZM14.2936 223.811C14.2863 223.818 14.2863 223.829 14.2936 223.844C14.3083 223.851 14.3229 223.855 14.3376 223.855H16.6146C16.6293 223.855 16.6403 223.851 16.6476 223.844C16.6623 223.829 16.6659 223.818 16.6586 223.811L15.4926 219.389C15.4853 219.374 15.4779 219.367 15.4706 219.367C15.4633 219.367 15.4559 219.374 15.4486 219.389L14.2936 223.811Z" fill="#B1B4C5"/>
<path d="M22.5138 218.3C22.5871 218.3 22.6238 218.337 22.6238 218.41V218.872C22.6238 218.945 22.5871 218.982 22.5138 218.982H20.7208C20.6914 218.982 20.6768 218.997 20.6768 219.026V225.89C20.6768 225.963 20.6401 226 20.5668 226H20.0058C19.9324 226 19.8958 225.963 19.8958 225.89V219.026C19.8958 218.997 19.8811 218.982 19.8518 218.982H18.1248C18.0514 218.982 18.0148 218.945 18.0148 218.872V218.41C18.0148 218.337 18.0514 218.3 18.1248 218.3H22.5138Z" fill="#B1B4C5"/>
<path d="M25.8151 226.088C25.1257 226.088 24.5757 225.908 24.1651 225.549C23.7617 225.182 23.5601 224.695 23.5601 224.086V223.789C23.5601 223.716 23.5967 223.679 23.6701 223.679H24.2091C24.2824 223.679 24.3191 223.716 24.3191 223.789V224.042C24.3191 224.453 24.4584 224.783 24.7371 225.032C25.0157 225.281 25.3861 225.406 25.8481 225.406C26.2807 225.406 26.6217 225.289 26.8711 225.054C27.1204 224.819 27.2451 224.511 27.2451 224.13C27.2451 223.881 27.1864 223.664 27.0691 223.481C26.9517 223.298 26.7794 223.129 26.5521 222.975C26.3247 222.821 25.9984 222.627 25.5731 222.392C25.1184 222.15 24.7591 221.937 24.4951 221.754C24.2384 221.571 24.0294 221.347 23.8681 221.083C23.7067 220.819 23.6261 220.496 23.6261 220.115C23.6261 219.521 23.8167 219.055 24.1981 218.718C24.5794 218.381 25.0891 218.212 25.7271 218.212C26.4091 218.212 26.9517 218.399 27.3551 218.773C27.7584 219.147 27.9601 219.642 27.9601 220.258V220.511C27.9601 220.584 27.9234 220.621 27.8501 220.621H27.3001C27.2267 220.621 27.1901 220.584 27.1901 220.511V220.269C27.1901 219.858 27.0581 219.528 26.7941 219.279C26.5301 219.022 26.1671 218.894 25.7051 218.894C25.2944 218.894 24.9717 219 24.7371 219.213C24.5097 219.426 24.3961 219.726 24.3961 220.115C24.3961 220.364 24.4511 220.573 24.5611 220.742C24.6711 220.911 24.8287 221.065 25.0341 221.204C25.2467 221.343 25.5694 221.53 26.0021 221.765C26.5007 222.044 26.8821 222.282 27.1461 222.48C27.4174 222.671 27.6301 222.894 27.7841 223.151C27.9454 223.4 28.0261 223.708 28.0261 224.075C28.0261 224.691 27.8281 225.182 27.4321 225.549C27.0361 225.908 26.4971 226.088 25.8151 226.088Z" fill="#B1B4C5"/>
<path d="M158.246 324.985C158.209 325 158.209 325.018 158.246 325.04C158.591 325.209 158.855 325.451 159.038 325.766C159.229 326.081 159.328 326.463 159.335 326.91C159.335 327.57 159.137 328.083 158.741 328.45C158.352 328.817 157.835 329 157.19 329H155.023C154.95 329 154.913 328.963 154.913 328.89V321.41C154.913 321.337 154.95 321.3 155.023 321.3H157.102C157.777 321.3 158.305 321.476 158.686 321.828C159.067 322.173 159.258 322.668 159.258 323.313C159.258 323.724 159.17 324.068 158.994 324.347C158.825 324.626 158.576 324.838 158.246 324.985ZM155.738 321.982C155.709 321.982 155.694 321.997 155.694 322.026V324.677C155.694 324.706 155.709 324.721 155.738 324.721H157.113C157.538 324.721 157.872 324.6 158.114 324.358C158.363 324.116 158.488 323.79 158.488 323.379C158.488 322.946 158.363 322.605 158.114 322.356C157.872 322.107 157.538 321.982 157.113 321.982H155.738ZM157.168 328.307C157.593 328.307 157.931 328.175 158.18 327.911C158.429 327.647 158.554 327.288 158.554 326.833C158.554 326.371 158.426 326.008 158.169 325.744C157.92 325.48 157.579 325.348 157.146 325.348H155.738C155.709 325.348 155.694 325.363 155.694 325.392V328.263C155.694 328.292 155.709 328.307 155.738 328.307H157.168Z" fill="#B1B4C5"/>
<path d="M165.024 321.872C165.024 321.945 164.987 321.982 164.914 321.982H161.614C161.585 321.982 161.57 321.997 161.57 322.026V324.754C161.57 324.783 161.585 324.798 161.614 324.798H163.836C163.909 324.798 163.946 324.835 163.946 324.908V325.37C163.946 325.443 163.909 325.48 163.836 325.48H161.614C161.585 325.48 161.57 325.495 161.57 325.524V328.274C161.57 328.303 161.585 328.318 161.614 328.318H164.914C164.987 328.318 165.024 328.355 165.024 328.428V328.89C165.024 328.963 164.987 329 164.914 329H160.899C160.826 329 160.789 328.963 160.789 328.89V321.41C160.789 321.337 160.826 321.3 160.899 321.3H164.914C164.987 321.3 165.024 321.337 165.024 321.41V321.872Z" fill="#B1B4C5"/>
<path d="M170.33 329C170.264 329 170.223 328.967 170.209 328.901L169.846 327.526C169.838 327.504 169.82 327.493 169.791 327.493H167.162C167.132 327.493 167.114 327.504 167.107 327.526L166.744 328.901C166.729 328.967 166.689 329 166.623 329H166.051C166.014 329 165.985 328.989 165.963 328.967C165.948 328.945 165.944 328.916 165.952 328.879L168.009 321.399C168.023 321.333 168.064 321.3 168.13 321.3H168.834C168.9 321.3 168.94 321.333 168.955 321.399L171.012 328.879L171.023 328.912C171.023 328.971 170.986 329 170.913 329H170.33ZM167.294 326.811C167.286 326.818 167.286 326.829 167.294 326.844C167.308 326.851 167.323 326.855 167.338 326.855H169.615C169.629 326.855 169.64 326.851 169.648 326.844C169.662 326.829 169.666 326.818 169.659 326.811L168.493 322.389C168.485 322.374 168.478 322.367 168.471 322.367C168.463 322.367 168.456 322.374 168.449 322.389L167.294 326.811Z" fill="#B1B4C5"/>
<path d="M175.514 321.3C175.587 321.3 175.624 321.337 175.624 321.41V321.872C175.624 321.945 175.587 321.982 175.514 321.982H173.721C173.691 321.982 173.677 321.997 173.677 322.026V328.89C173.677 328.963 173.64 329 173.567 329H173.006C172.932 329 172.896 328.963 172.896 328.89V322.026C172.896 321.997 172.881 321.982 172.852 321.982H171.125C171.051 321.982 171.015 321.945 171.015 321.872V321.41C171.015 321.337 171.051 321.3 171.125 321.3H175.514Z" fill="#B1B4C5"/>
<path d="M178.815 329.088C178.126 329.088 177.576 328.908 177.165 328.549C176.762 328.182 176.56 327.695 176.56 327.086V326.789C176.56 326.716 176.597 326.679 176.67 326.679H177.209C177.282 326.679 177.319 326.716 177.319 326.789V327.042C177.319 327.453 177.458 327.783 177.737 328.032C178.016 328.281 178.386 328.406 178.848 328.406C179.281 328.406 179.622 328.289 179.871 328.054C180.12 327.819 180.245 327.511 180.245 327.13C180.245 326.881 180.186 326.664 180.069 326.481C179.952 326.298 179.779 326.129 179.552 325.975C179.325 325.821 178.998 325.627 178.573 325.392C178.118 325.15 177.759 324.937 177.495 324.754C177.238 324.571 177.029 324.347 176.868 324.083C176.707 323.819 176.626 323.496 176.626 323.115C176.626 322.521 176.817 322.055 177.198 321.718C177.579 321.381 178.089 321.212 178.727 321.212C179.409 321.212 179.952 321.399 180.355 321.773C180.758 322.147 180.96 322.642 180.96 323.258V323.511C180.96 323.584 180.923 323.621 180.85 323.621H180.3C180.227 323.621 180.19 323.584 180.19 323.511V323.269C180.19 322.858 180.058 322.528 179.794 322.279C179.53 322.022 179.167 321.894 178.705 321.894C178.294 321.894 177.972 322 177.737 322.213C177.51 322.426 177.396 322.726 177.396 323.115C177.396 323.364 177.451 323.573 177.561 323.742C177.671 323.911 177.829 324.065 178.034 324.204C178.247 324.343 178.569 324.53 179.002 324.765C179.501 325.044 179.882 325.282 180.146 325.48C180.417 325.671 180.63 325.894 180.784 326.151C180.945 326.4 181.026 326.708 181.026 327.075C181.026 327.691 180.828 328.182 180.432 328.549C180.036 328.908 179.497 329.088 178.815 329.088Z" fill="#B1B4C5"/>
<defs>
<linearGradient id="paint0_linear" x1="284.5" y1="92" x2="284.5" y2="192.344" gradientUnits="userSpaceOnUse">
<stop stop-color="white" stop-opacity="0.097"/>
<stop offset="1" stop-color="white" stop-opacity="0"/>
</linearGradient>
<linearGradient id="paint1_linear" x1="51.5" y1="92" x2="51.5" y2="192.344" gradientUnits="userSpaceOnUse">
<stop stop-color="white" stop-opacity="0.097"/>
<stop offset="1" stop-color="white" stop-opacity="0"/>
</linearGradient>
<linearGradient id="paint2_linear" x1="168.5" y1="0" x2="168.5" y2="100.344" gradientUnits="userSpaceOnUse">
<stop stop-color="white" stop-opacity="0.097"/>
<stop offset="1" stop-color="white" stop-opacity="0"/>
</linearGradient>
<linearGradient id="paint3_linear" x1="238.5" y1="225" x2="238.5" y2="325.344" gradientUnits="userSpaceOnUse">
<stop stop-color="white" stop-opacity="0.097"/>
<stop offset="1" stop-color="white" stop-opacity="0"/>
</linearGradient>
<linearGradient id="paint4_linear" x1="97.5" y1="225" x2="97.5" y2="325.344" gradientUnits="userSpaceOnUse">
<stop stop-color="white" stop-opacity="0.097"/>
<stop offset="1" stop-color="white" stop-opacity="0"/>
</linearGradient>
</defs>
</svg>
